<?xml version="1.0" encoding="UTF-8"?>
<svg version="1.1" xmlns="http://www.w3.org/2000/svg" width="1563" height="1563">
<path d="M0 0 C515.79 0 1031.58 0 1563 0 C1563 515.79 1563 1031.58 1563 1563 C1047.21 1563 531.42 1563 0 1563 C0 1047.21 0 531.42 0 0 Z " fill="#1E0055" transform="translate(0,0)"/>
<path d="M0 0 C21.12 0 42.24 0 64 0 C70.76264063 7.8897474 77.51405915 15.78101256 84.21875 23.71875 C87.13006604 27.15939623 90.06373246 30.58064474 93 34 C97.30766901 39.01638576 101.58994574 44.05322104 105.85546875 49.10546875 C109.21902365 53.08583601 112.60499713 57.04643624 116 61 C120.30766901 66.01638576 124.58994574 71.05322104 128.85546875 76.10546875 C132.71279868 80.67016005 136.60143653 85.20748472 140.49536133 89.7409668 C144.55791611 94.47452409 148.59143759 99.23212417 152.61132812 104.00195312 C154.73594888 106.56395267 154.73594888 106.56395267 157 109 C157.33 73.03 157.66 37.06 158 0 C229.94 0 301.88 0 376 0 C376 17.82 376 35.64 376 54 C335.41 54 294.82 54 253 54 C253 64.23 253 74.46 253 85 C287.65 85 322.3 85 358 85 C358 102.16 358 119.32 358 137 C323.35 137 288.7 137 253 137 C253 148.55 253 160.1 253 172 C294.58 172 336.16 172 379 172 C379 189.82 379 207.64 379 226 C350.80080439 226.33892011 322.60326362 226.61509544 294.40254688 226.77718258 C281.30774207 226.85445099 268.21429468 226.95974487 255.12036133 227.1315918 C243.70434304 227.28134576 232.28930792 227.37792981 220.87233466 227.41132742 C214.82938519 227.43084436 208.78924769 227.47652871 202.74720192 227.58595085 C197.05239925 227.68824284 191.36154868 227.71908533 185.66591454 227.69661522 C183.58289426 227.70072156 181.4997336 227.73029521 179.41751099 227.78808212 C162.92162222 228.22319295 162.92162222 228.22319295 157.0143795 222.80981636 C154.15667724 219.74267364 151.73456035 216.45606386 149.39619672 212.98305905 C147.01837805 209.60577363 144.24622689 206.57846325 141.5 203.5 C140.41490506 202.2515289 139.33136325 201.00170469 138.25 199.75 C137.445625 198.821875 137.445625 198.821875 136.625 197.875 C126.33333333 186 116.04166667 174.125 105.75 162.25 C105.21366943 161.63116943 104.67733887 161.01233887 104.12475586 160.37475586 C103.04218675 159.12561263 101.95966716 157.87642648 100.87719727 156.62719727 C98.15757723 153.48873365 95.43708196 150.35103681 92.71484375 147.21484375 C87.27530165 140.9467193 81.84472519 134.67103835 76.4375 128.375 C75.94886475 127.8070874 75.46022949 127.2391748 74.95678711 126.65405273 C72.23665419 123.48175174 69.61235535 120.26544419 67 117 C66.67 152.64 66.34 188.28 66 225 C44.22 225 22.44 225 0 225 C0 150.75 0 76.5 0 0 Z " fill="#FEFEFE" transform="translate(329,663)"/>
<path d="M0 0 C21.12 0 42.24 0 64 0 C67.96 4.62 71.92 9.24 76 14 C78.4318032 16.82488237 78.4318032 16.82488237 80.86401367 19.64941406 C84.86732568 24.30185193 88.82347808 28.98034794 92.6875 33.75 C96.24267904 38.13151795 99.96769537 42.31710681 103.765625 46.48828125 C106.00134533 49.00151232 108.13377682 51.57311479 110.25 54.1875 C113.85470085 58.63852192 117.55370267 62.99198605 121.3125 67.3125 C121.86357422 67.94599365 122.41464844 68.5794873 122.98242188 69.23217773 C124.10162485 70.51831655 125.22092837 71.80436788 126.34033203 73.09033203 C133.24042148 81.02979947 140.0869637 89.00266006 146.671875 97.20703125 C150.01765372 101.22084297 153.52842591 105.09447915 157 109 C157.33 73.03 157.66 37.06 158 0 C180.11 0 202.22 0 225 0 C225 74.58 225 149.16 225 226 C203.88 226 182.76 226 161 226 C156.71 221.05 152.42 216.1 148 211 C145.42241125 208.02962146 145.42241125 208.02962146 142.84472656 205.05932617 C137.61863605 199.03626593 132.42244938 192.98889951 127.24462891 186.92431641 C124.31737077 183.50609717 121.34190319 180.14116832 118.3125 176.8125 C115.28287132 173.47772886 112.39391908 170.06712361 109.5625 166.5625 C105.70174863 161.788597 101.62562925 157.26611572 97.46875 152.75 C94.27118704 149.18815771 91.28611657 145.47434167 88.28125 141.75 C85.2331021 138.07552034 82.01013749 134.58028593 78.75 131.09375 C74.68646602 126.52227427 70.87315373 121.73385456 67 117 C66.67 152.64 66.34 188.28 66 225 C44.22 225 22.44 225 0 225 C0 150.75 0 76.5 0 0 Z " fill="#FEFDFE" transform="translate(984,663)"/>
<path d="M0 0 C17.16 0 34.32 0 52 0 C52 29.04 52 58.08 52 88 C73.45 88 94.9 88 117 88 C117 58.96 117 29.92 117 0 C134.16 0 151.32 0 169 0 C160.64356032 36.7481986 152.20820976 73.47711698 143.72685623 110.19661903 C142.60036796 115.0737673 141.4739711 119.95093668 140.34765625 124.828125 C140.12499084 125.79229717 139.90232544 126.75646935 139.6729126 127.74985886 C134.82920466 148.72557293 130.00516229 169.70579036 125.1875 190.6875 C125.00132614 191.49828381 124.81515228 192.30906761 124.62333679 193.14442062 C122.41478166 202.76276899 120.20691992 212.38127629 118 222 C117.67 222 117.34 222 117 222 C117 194.94 117 167.88 117 140 C95.55 140 74.1 140 52 140 C52 168.05 52 196.1 52 225 C34.84 225 17.68 225 0 225 C0 150.75 0 76.5 0 0 Z " fill="#FD3535" transform="translate(711,664)"/>
<path d="M0 0 C1.3921875 1.2684375 1.3921875 1.2684375 2.8125 2.5625 C17.53301865 15.1164907 33.73048062 20.51171006 53 19 C65.6047193 16.85860822 77.6188433 11.8450906 87 3 C90.04581486 4.36113013 92.13839026 5.89330096 94.48339844 8.25634766 C95.47397247 9.24714828 95.47397247 9.24714828 96.48455811 10.25796509 C97.18574768 10.96947723 97.88693726 11.68098938 98.609375 12.4140625 C99.33618469 13.14370209 100.06299438 13.87334167 100.81182861 14.62509155 C103.12929198 16.9537388 105.4396995 19.28924826 107.75 21.625 C109.32115444 23.20618653 110.89276371 24.78692125 112.46484375 26.3671875 C116.31518653 30.2395669 120.15976117 34.11760171 124 38 C118.10336484 51.167806 98.37387995 59.70604809 85.66015625 64.78125 C56.17658315 75.79946884 24.88443419 73.74898409 -3.7578125 61.41796875 C-11.72864951 57.69636045 -11.72864951 57.69636045 -12.69137573 55.22573853 C-13.06753369 52.51296009 -12.66281365 50.56018494 -12.02783203 47.89599609 C-11.79073517 46.88169525 -11.55363831 45.86739441 -11.30935669 44.82235718 C-10.91259232 43.18939194 -10.91259232 43.18939194 -10.5078125 41.5234375 C-10.24241669 40.40184235 -9.97702087 39.28024719 -9.70358276 38.12466431 C-9.14113641 35.75494231 -8.5743012 33.38625834 -8.00341797 31.01855469 C-7.12723766 27.38428152 -6.2635999 23.74721078 -5.40234375 20.109375 C-4.8548933 17.80972273 -4.30674013 15.51023761 -3.7578125 13.2109375 C-3.49735138 12.11824554 -3.23689026 11.02555359 -2.96853638 9.89974976 C-2.72513519 8.89175323 -2.48173401 7.88375671 -2.23095703 6.84521484 C-2.01698273 5.95571136 -1.80300842 5.06620789 -1.58255005 4.14974976 C-1 2 -1 2 0 0 Z " fill="#FB3537" transform="translate(854,817)"/>
<path d="M0 0 C32.58390502 -0.75416753 61.31962728 5.76292373 85.71875 28.609375 C86.83707413 29.71527331 87.92430607 30.85259314 89 32 C87.42735472 35.86012933 84.95728668 38.10799446 82 41 C80.95268296 42.04464088 79.90677162 43.09069243 78.86206055 44.13793945 C70.57470703 52.42529297 62.28735352 60.71264648 54 69 C50.92708231 67.52130577 48.5483427 65.888416 45.9375 63.6875 C33.90456756 54.23024428 19.11177872 50.70185161 4 52 C0.49835306 52.6481772 -2.91496075 53.42741248 -6.35546875 54.34375 C-9 55 -9 55 -12 55 C-11.39047935 48.44682485 -10.27189022 42.21850036 -8.75 35.8203125 C-8.53182617 34.88573212 -8.31365234 33.95115173 -8.08886719 32.98825073 C-7.6306835 31.02968343 -7.17003813 29.07169052 -6.70703125 27.11425781 C-5.99735959 24.11383661 -5.29490275 21.11179723 -4.59375 18.109375 C-4.14624674 16.20042387 -3.69834429 14.29156627 -3.25 12.3828125 C-3.03956055 11.48595734 -2.82912109 10.58910217 -2.61230469 9.66506958 C-2.41540039 8.83345306 -2.21849609 8.00183655 -2.015625 7.14501953 C-1.84321289 6.41493683 -1.67080078 5.68485413 -1.49316406 4.93264771 C-1.06840967 3.26808885 -0.54324695 1.62974085 0 0 Z " fill="#FB3537" transform="translate(889,664)"/>
<path d="M0 0 C3.96 0 7.92 0 12 0 C12.99 8.25 13.98 16.5 15 25 C15.61715903 17.89524087 15.61715903 17.89524087 16.22631836 10.78979492 C16.34438843 9.46105347 16.34438843 9.46105347 16.46484375 8.10546875 C16.543396 7.19949951 16.62194824 6.29353027 16.70288086 5.36010742 C17 3 17 3 18 0 C21.96 0 25.92 0 30 0 C30.99 7.59 31.98 15.18 33 23 C33.99 15.41 34.98 7.82 36 0 C40.29 0 44.58 0 49 0 C47.6094189 12.20938072 46.03920024 24.3876247 44.375 36.5625 C44.14308986 38.26755918 43.91131841 39.97263724 43.6796875 41.67773438 C43.12138136 45.78537433 42.56122999 49.89275856 42 54 C37.38 54 32.76 54 28 54 C27.01 46.08 26.02 38.16 25 30 C24.01 37.92 23.02 45.84 22 54 C17.05 54 12.1 54 7 54 C4.09240836 36.06985157 2.05662947 18.043035 0 0 Z " fill="#FBF9FC" transform="translate(1072,937)"/>
<path d="M0 0 C4.62 0 9.24 0 14 0 C15.32 7.59 16.64 15.18 18 23 C18.33 15.41 18.66 7.82 19 0 C23.29 0 27.58 0 32 0 C32 21.12 32 42.24 32 64 C27.38 64 22.76 64 18 64 C16.68 57.07 15.36 50.14 14 43 C13.67 49.93 13.34 56.86 13 64 C8.71 64 4.42 64 0 64 C0 42.88 0 21.76 0 0 Z " fill="#F7F5F9" transform="translate(977,927)"/>
<path d="M0 0 C4.62 0 9.24 0 14 0 C15.32 6.6 16.64 13.2 18 20 C18.33 13.4 18.66 6.8 19 0 C23.29 0 27.58 0 32 0 C32 21.12 32 42.24 32 64 C27.71 64 23.42 64 19 64 C17.12378706 56.66571306 15.48815953 49.44079767 14 42 C13.67 49.26 13.34 56.52 13 64 C8.71 64 4.42 64 0 64 C0 42.88 0 21.76 0 0 Z " fill="#F9F7FB" transform="translate(326,927)"/>
<path d="M0 0 C4.29 0 8.58 0 13 0 C13 7.59 13 15.18 13 23 C14.98 23 16.96 23 19 23 C19 15.41 19 7.82 19 0 C23.29 0 27.58 0 32 0 C32 21.12 32 42.24 32 64 C27.71 64 23.42 64 19 64 C19 54.43 19 44.86 19 35 C17.02 35 15.04 35 13 35 C13 44.57 13 54.14 13 64 C8.71 64 4.42 64 0 64 C0 42.88 0 21.76 0 0 Z " fill="#FCFAFD" transform="translate(635,927)"/>
<path d="M0 0 C4.62 0 9.24 0 14 0 C14.33 3.96 14.66 7.92 15 12 C15.66 11.34 16.32 10.68 17 10 C20.38350489 9.4310921 23.61391382 9.46227248 27 10 C29.82424288 12.19022918 31.41508603 13.83017207 33 17 C33.08977728 18.51164392 33.11757433 20.02720179 33.11352539 21.54150391 C33.11344986 22.48232819 33.11337433 23.42315247 33.11329651 24.39248657 C33.10813522 25.41023163 33.10297394 26.42797668 33.09765625 27.4765625 C33.0962413 28.51694672 33.09482635 29.55733093 33.09336853 30.62924194 C33.08775866 33.96119021 33.07520447 37.29307195 33.0625 40.625 C33.05748627 42.88020736 33.05292314 45.13541578 33.04882812 47.390625 C33.03778602 52.92710907 33.02051475 58.46354325 33 64 C28.71 64 24.42 64 20 64 C19.67 49.81 19.34 35.62 19 21 C17.68 21 16.36 21 15 21 C14.67 35.19 14.34 49.38 14 64 C9.38 64 4.76 64 0 64 C0 42.88 0 21.76 0 0 Z " fill="#FBF9FC" transform="translate(786,927)"/>
<path d="M0 0 C4.29 0 8.58 0 13 0 C13.33 4.29 13.66 8.58 14 13 C14.99 12.01 15.98 11.02 17 10 C20.41031445 9.25435498 23.58120081 9.31296858 27 10 C30.23361446 12.32119503 31.74751217 15.24253651 33 19 C33.08650584 20.48844716 33.11770173 21.98048257 33.11352539 23.47143555 C33.11344986 24.37214279 33.11337433 25.27285004 33.11329651 26.20085144 C33.10813522 27.16968765 33.10297394 28.13852386 33.09765625 29.13671875 C33.0962413 30.13129593 33.09482635 31.12587311 33.09336853 32.15058899 C33.08776761 35.32958982 33.07521496 38.50852043 33.0625 41.6875 C33.05748512 43.84179586 33.05292219 45.99609282 33.04882812 48.15039062 C33.03779787 53.43362084 33.02053262 58.71679851 33 64 C28.38 64 23.76 64 19 64 C18.67 49.81 18.34 35.62 18 21 C16.68 21 15.36 21 14 21 C13.67 35.19 13.34 49.38 13 64 C8.71 64 4.42 64 0 64 C0 42.88 0 21.76 0 0 Z " fill="#FAF8FB" transform="translate(449,927)"/>
<path d="M0 0 C3.8695821 2.03401111 5.8753893 4.38713955 7.703125 8.2734375 C8.00211627 11.06841869 8.14775297 13.63370845 8.13671875 16.42578125 C8.1419606 17.20353409 8.14720245 17.98128693 8.15260315 18.78260803 C8.15900687 20.42236135 8.15770774 22.0621607 8.14916992 23.7019043 C8.14066261 26.19989493 8.16943626 28.69559452 8.20117188 31.19335938 C8.20278427 32.79166599 8.20220562 34.38997662 8.19921875 35.98828125 C8.21606972 37.09948586 8.21606972 37.09948586 8.23326111 38.23313904 C8.16456715 43.38946297 6.93787026 46.29488782 3.703125 50.2734375 C-1.24879332 54.26883142 -6.65036278 53.90358919 -12.7421875 53.69140625 C-15.98085429 53.31059598 -17.59938976 53.06520446 -20.109375 51.0859375 C-25.30715838 44.40307315 -24.66923128 37.33143555 -24.66748047 29.23657227 C-24.67184223 26.97790456 -24.70816361 24.72121171 -24.74609375 22.46289062 C-24.85908063 8.54063125 -24.85908063 8.54063125 -20.296875 2.2734375 C-14.84289735 -2.30174308 -6.58743931 -2.08378182 0 0 Z " fill="#FCFBFD" transform="translate(1149.296875,937.7265625)"/>
<path d="M0 0 C3.8695821 2.03401111 5.8753893 4.38713955 7.703125 8.2734375 C8.00211627 11.06841869 8.14775297 13.63370845 8.13671875 16.42578125 C8.1419606 17.20353409 8.14720245 17.98128693 8.15260315 18.78260803 C8.15900687 20.42236135 8.15770774 22.0621607 8.14916992 23.7019043 C8.14066261 26.19989493 8.16943626 28.69559452 8.20117188 31.19335938 C8.20278427 32.79166599 8.20220562 34.38997662 8.19921875 35.98828125 C8.21606972 37.09948586 8.21606972 37.09948586 8.23326111 38.23313904 C8.16456715 43.38946297 6.93787026 46.29488782 3.703125 50.2734375 C-1.24879332 54.26883142 -6.65036278 53.90358919 -12.7421875 53.69140625 C-15.98085429 53.31059598 -17.59938976 53.06520446 -20.109375 51.0859375 C-25.30715838 44.40307315 -24.66923128 37.33143555 -24.66748047 29.23657227 C-24.67184223 26.97790456 -24.70816361 24.72121171 -24.74609375 22.46289062 C-24.85908063 8.54063125 -24.85908063 8.54063125 -20.296875 2.2734375 C-14.84289735 -2.30174308 -6.58743931 -2.08378182 0 0 Z " fill="#FCFBFD" transform="translate(387.296875,937.7265625)"/>
<path d="M0 0 C4.29 0 8.58 0 13 0 C13.33 7.92 13.66 15.84 14 24 C15.65 19.38 17.3 14.76 19 10 C23.62 10 28.24 10 33 10 C32.48308594 11.43472656 31.96617188 12.86945312 31.43359375 14.34765625 C30.767429 16.25232449 30.10210875 18.15728825 29.4375 20.0625 C29.09525391 21.00544922 28.75300781 21.94839844 28.40039062 22.91992188 C24.88721571 33.10458046 27.48513157 39.92613852 31.0625 49.75 C31.80761833 51.80576236 32.54869999 53.86299366 33.28515625 55.921875 C33.61394775 56.82518555 33.94273926 57.72849609 34.28149414 58.65917969 C35 61 35 61 35 64 C30.38 64 25.76 64 21 64 C18.69 57.07 16.38 50.14 14 43 C13.67 49.93 13.34 56.86 13 64 C8.71 64 4.42 64 0 64 C0 42.88 0 21.76 0 0 Z " fill="#FCFAFD" transform="translate(1188,927)"/>
<path d="M0 0 C4.87331546 2.46566556 7.23452776 4.81885466 9 10 C9.32500232 13.14239717 9.2848379 16.22056284 9.1875 19.375 C9.125625 22.22125 9.06375 25.0675 9 28 C2.73 28 -3.54 28 -10 28 C-9.67 32.95 -9.34 37.9 -9 43 C-7.68 43.33 -6.36 43.66 -5 44 C-5 40.37 -5 36.74 -5 33 C-0.38 33 4.24 33 9 33 C9.37961658 40.08617612 8.61058444 45.81835021 4 51.4375 C0.1644579 54.43401726 -3.65837983 54.25453622 -8.375 54.375 C-9.68210937 54.42398438 -10.98921875 54.47296875 -12.3359375 54.5234375 C-16 54 -16 54 -18.7890625 51.9765625 C-24.46848298 44.33041691 -24.47875108 37.19155652 -24.39111328 27.90869141 C-24.37497659 25.87204587 -24.39104947 23.83736791 -24.41015625 21.80078125 C-24.40628906 20.50269531 -24.40242187 19.20460938 -24.3984375 17.8671875 C-24.39505371 16.69269043 -24.39166992 15.51819336 -24.38818359 14.30810547 C-23.80385495 9.32844939 -21.8037562 6.02702181 -18.75 2.125 C-13.71244666 -1.80581814 -5.95769267 -0.92293316 0 0 Z " fill="#F6F4F9" transform="translate(1037,937)"/>
<path d="M0 0 C1.31613281 -0.02578125 2.63226562 -0.0515625 3.98828125 -0.078125 C8.96475182 0.36329372 11.20429194 1.88205566 14.80493164 5.20288086 C17.57163988 9.68106599 17.1868088 13.63965278 17.078125 18.80078125 C17.07246521 19.81472458 17.06680542 20.82866791 17.06097412 21.87333679 C17.03862998 25.10354336 16.98843598 28.33263017 16.9375 31.5625 C16.91743252 33.75584333 16.89918218 35.94920408 16.8828125 38.14257812 C16.83877139 43.51214849 16.7697562 48.88088456 16.6875 54.25 C12.3975 54.25 8.1075 54.25 3.6875 54.25 C3.3575 53.26 3.0275 52.27 2.6875 51.25 C2.28273438 51.7346875 1.87796875 52.219375 1.4609375 52.71875 C-1.27048114 55.07715552 -3.59900471 54.78191029 -7.0859375 54.6796875 C-10.61727188 53.99820192 -12.19497849 52.02924698 -14.3125 49.25 C-16.88979344 44.09541312 -16.04391806 35.91140261 -15.3125 30.25 C-13.58981612 25.6608831 -10.87491039 23.97516938 -6.53515625 21.9609375 C0.48193027 19.25 0.48193027 19.25 3.6875 19.25 C3.3575 16.61 3.0275 13.97 2.6875 11.25 C1.3675 11.25 0.0475 11.25 -1.3125 11.25 C-1.6425 12.9 -1.9725 14.55 -2.3125 16.25 C-6.2725 16.25 -10.2325 16.25 -14.3125 16.25 C-14.98214286 7.41071429 -14.98214286 7.41071429 -11.9375 3.75 C-7.99099311 -0.00857799 -5.23168074 0.03989842 0 0 Z " fill="#FCFAFD" transform="translate(875.3125,936.75)"/>
<path d="M0 0 C1.31613281 -0.02578125 2.63226562 -0.0515625 3.98828125 -0.078125 C8.96475182 0.36329372 11.20429194 1.88205566 14.80493164 5.20288086 C17.57163988 9.68106599 17.1868088 13.63965278 17.078125 18.80078125 C17.07246521 19.81472458 17.06680542 20.82866791 17.06097412 21.87333679 C17.03862998 25.10354336 16.98843598 28.33263017 16.9375 31.5625 C16.91743252 33.75584333 16.89918218 35.94920408 16.8828125 38.14257812 C16.83877139 43.51214849 16.7697562 48.88088456 16.6875 54.25 C12.3975 54.25 8.1075 54.25 3.6875 54.25 C3.3575 53.26 3.0275 52.27 2.6875 51.25 C2.28273438 51.7346875 1.87796875 52.219375 1.4609375 52.71875 C-1.27048114 55.07715552 -3.59900471 54.78191029 -7.0859375 54.6796875 C-10.61727188 53.99820192 -12.19497849 52.02924698 -14.3125 49.25 C-16.88979344 44.09541312 -16.04391806 35.91140261 -15.3125 30.25 C-13.58981612 25.6608831 -10.87491039 23.97516938 -6.53515625 21.9609375 C0.48193027 19.25 0.48193027 19.25 3.6875 19.25 C3.3575 16.61 3.0275 13.97 2.6875 11.25 C1.3675 11.25 0.0475 11.25 -1.3125 11.25 C-1.6425 12.9 -1.9725 14.55 -2.3125 16.25 C-6.2725 16.25 -10.2325 16.25 -14.3125 16.25 C-14.98214286 7.41071429 -14.98214286 7.41071429 -11.9375 3.75 C-7.99099311 -0.00857799 -5.23168074 0.03989842 0 0 Z " fill="#FCFAFD" transform="translate(723.3125,936.75)"/>
<path d="M0 0 C1.94326172 -0.02513672 1.94326172 -0.02513672 3.92578125 -0.05078125 C8.78946134 0.41891994 12.12786663 1.46778723 15.33837891 5.26513672 C17.33690134 9.77935262 17.05755835 13.98221845 16.98046875 18.86328125 C16.97622391 19.87722458 16.97197906 20.89116791 16.96760559 21.93583679 C16.95084859 25.16583099 16.91320122 28.39519522 16.875 31.625 C16.85994934 33.81835035 16.8462616 36.0117105 16.83398438 38.20507812 C16.8009547 43.5744605 16.74919228 48.94337353 16.6875 54.3125 C12.3975 54.3125 8.1075 54.3125 3.6875 54.3125 C3.3575 53.3225 3.0275 52.3325 2.6875 51.3125 C2.28273438 51.7971875 1.87796875 52.281875 1.4609375 52.78125 C-1.27065269 55.13980364 -3.59869192 54.84619276 -7.0859375 54.73828125 C-10.64994585 54.05674281 -12.20603457 52.14306293 -14.3125 49.3125 C-15.50063473 45.74809582 -15.55437953 42.75775218 -15.625 39 C-15.66238281 37.70449219 -15.69976563 36.40898438 -15.73828125 35.07421875 C-15.24052631 30.67662233 -14.16092387 28.66644619 -11.3125 25.3125 C-8.91015625 23.66796875 -8.91015625 23.66796875 -6.375 22.5 C-5.54097656 22.10167969 -4.70695313 21.70335937 -3.84765625 21.29296875 C-1.337553 20.32218922 1.03736192 19.75339954 3.6875 19.3125 C3.3575 16.6725 3.0275 14.0325 2.6875 11.3125 C1.6975 10.9825 0.7075 10.6525 -0.3125 10.3125 C-0.6425 12.2925 -0.9725 14.2725 -1.3125 16.3125 C-5.6025 16.3125 -9.8925 16.3125 -14.3125 16.3125 C-14.80241084 8.10649343 -14.80241084 8.10649343 -12.5 4.375 C-8.26045468 0.37771441 -5.73485499 0.01701737 0 0 Z " fill="#FBFAFC" transform="translate(537.3125,936.6875)"/>
<path d="M0 0 C1.27746094 -0.01933594 2.55492187 -0.03867187 3.87109375 -0.05859375 C8.1572247 0.51742597 10.26660144 1.67554672 13.5625 4.4375 C15.44318383 7.43903159 15.80285746 9.68961794 15.7578125 13.203125 C15.75136719 14.09257813 15.74492188 14.98203125 15.73828125 15.8984375 C15.72152344 16.81882812 15.70476563 17.73921875 15.6875 18.6875 C15.67847656 19.62335937 15.66945313 20.55921875 15.66015625 21.5234375 C15.63663791 23.82823489 15.60076826 26.13290033 15.5625 28.4375 C9.2925 28.4375 3.0225 28.4375 -3.4375 28.4375 C-3.1075 33.7175 -2.7775 38.9975 -2.4375 44.4375 C-0.4575 43.9425 -0.4575 43.9425 1.5625 43.4375 C1.8925 40.1375 2.2225 36.8375 2.5625 33.4375 C6.8525 33.4375 11.1425 33.4375 15.5625 33.4375 C16.05158297 44.44186681 16.05158297 44.44186681 13.8125 49 C10.47070397 52.62027904 8.90173857 54.28118509 3.84765625 54.87109375 C2.44020842 54.88827386 1.03248193 54.88911331 -0.375 54.875 C-1.42977539 54.9049707 -1.42977539 54.9049707 -2.50585938 54.93554688 C-5.95630762 54.93231309 -8.23806156 54.55008176 -11.25390625 52.84765625 C-17.48330979 45.9719103 -16.93414552 37.94968266 -16.88354492 29.19482422 C-16.87501991 26.9427589 -16.90386919 24.69322279 -16.93554688 22.44140625 C-16.93715903 20.99218825 -16.93658108 19.54296582 -16.93359375 18.09375 C-16.93544678 16.79244141 -16.9372998 15.49113281 -16.93920898 14.15039062 C-16.22588411 8.87143943 -14.32429591 5.01466786 -10.15234375 1.52734375 C-6.64956962 0.12119414 -3.77003671 0.00379661 0 0 Z " fill="#FAF9FC" transform="translate(938.4375,936.5625)"/>
<path d="M0 0 C1.27746094 -0.01933594 2.55492187 -0.03867187 3.87109375 -0.05859375 C8.1572247 0.51742597 10.26660144 1.67554672 13.5625 4.4375 C15.44318383 7.43903159 15.80285746 9.68961794 15.7578125 13.203125 C15.75136719 14.09257813 15.74492188 14.98203125 15.73828125 15.8984375 C15.72152344 16.81882812 15.70476563 17.73921875 15.6875 18.6875 C15.67847656 19.62335937 15.66945313 20.55921875 15.66015625 21.5234375 C15.63663791 23.82823489 15.60076826 26.13290033 15.5625 28.4375 C9.2925 28.4375 3.0225 28.4375 -3.4375 28.4375 C-3.1075 33.7175 -2.7775 38.9975 -2.4375 44.4375 C-0.4575 43.9425 -0.4575 43.9425 1.5625 43.4375 C1.8925 40.1375 2.2225 36.8375 2.5625 33.4375 C6.8525 33.4375 11.1425 33.4375 15.5625 33.4375 C16.05158297 44.44186681 16.05158297 44.44186681 13.8125 49 C10.47070397 52.62027904 8.90173857 54.28118509 3.84765625 54.87109375 C2.44020842 54.88827386 1.03248193 54.88911331 -0.375 54.875 C-1.42977539 54.9049707 -1.42977539 54.9049707 -2.50585938 54.93554688 C-5.95630762 54.93231309 -8.23806156 54.55008176 -11.25390625 52.84765625 C-17.48330979 45.9719103 -16.93414552 37.94968266 -16.88354492 29.19482422 C-16.87501991 26.9427589 -16.90386919 24.69322279 -16.93554688 22.44140625 C-16.93715903 20.99218825 -16.93658108 19.54296582 -16.93359375 18.09375 C-16.93544678 16.79244141 -16.9372998 15.49113281 -16.93920898 14.15039062 C-16.22588411 8.87143943 -14.32429591 5.01466786 -10.15234375 1.52734375 C-6.64956962 0.12119414 -3.77003671 0.00379661 0 0 Z " fill="#FAF9FC" transform="translate(502.4375,936.5625)"/>
<path d="M0 0 C3.72642738 1.90397149 6.13347947 4.26695894 8 8 C8.08372659 9.52148326 8.10730027 11.04655778 8.09765625 12.5703125 C8.09443359 13.46621094 8.09121094 14.36210938 8.08789062 15.28515625 C8.07532227 16.69087891 8.07532227 16.69087891 8.0625 18.125 C8.05798828 19.06988281 8.05347656 20.01476562 8.04882812 20.98828125 C8.03702375 23.3255477 8.01908799 25.66278169 8 28 C1.73 28 -4.54 28 -11 28 C-10.67 33.28 -10.34 38.56 -10 44 C-8.02 43.505 -8.02 43.505 -6 43 C-5.67 39.7 -5.34 36.4 -5 33 C-0.71 33 3.58 33 8 33 C8.43763607 40.00217717 8.45469645 44.52790796 4.58203125 50.44140625 C0.73051691 54.23586112 -3.82189529 54.31920146 -9 54.375 C-10.19625 54.40335938 -11.3925 54.43171875 -12.625 54.4609375 C-16.69088476 53.90564305 -18.17987614 52.94742112 -21 50 C-23.85359965 45.32215183 -24.45562969 41.34173981 -24.43359375 35.96875 C-24.4388356 35.21460815 -24.44407745 34.46046631 -24.44947815 33.68347168 C-24.45587149 32.09677354 -24.45459632 30.51002782 -24.44604492 28.92333984 C-24.43752336 26.50662357 -24.46634803 24.09226522 -24.49804688 21.67578125 C-24.49965897 20.12760487 -24.49908119 18.57942434 -24.49609375 17.03125 C-24.50732773 16.31545776 -24.51856171 15.59966553 -24.53013611 14.86218262 C-24.46013497 9.7812196 -23.17151603 6.92379333 -20 3 C-14.2742918 -1.60206239 -6.92880755 -0.94823121 0 0 Z " fill="#FBFAFD" transform="translate(696,937)"/>
<path d="M0 0 C3.72873237 1.89635999 6.13445321 4.26890643 8 8 C8.13415472 10.6723621 8.04318541 13.32250488 8 16 C3.71 16 -0.58 16 -5 16 C-5.33 14.02 -5.66 12.04 -6 10 C-7.32 10.33 -8.64 10.66 -10 11 C-9.94325972 13.3493494 -9.94325972 13.3493494 -9 16 C-6.40182391 18.38861669 -6.40182391 18.38861669 -3.1875 20.5 C2.12198994 24.17331338 6.58621948 27.84914811 9 34 C9.79210287 39.65787767 9.1591191 44.14849567 6 49 C2.75697369 52.74974917 0.64143428 53.86655006 -4.36328125 54.2734375 C-16.34261368 54.58151133 -16.34261368 54.58151133 -19.8125 51.875 C-24.24499058 46.04944095 -24.21398485 41.06149999 -24 34 C-19.71 34 -15.42 34 -11 34 C-10.67 37.3 -10.34 40.6 -10 44 C-8.68 44 -7.36 44 -6 44 C-5.57825995 38.95113911 -5.57825995 38.95113911 -7.703125 34.5078125 C-9.98492651 32.01645779 -12.29527696 30.07867312 -15 28.0625 C-23.42806767 21.38717207 -23.42806767 21.38717207 -24.40234375 15.6171875 C-24.66995 11.24410979 -24.5289854 8.01029734 -21.75 4.5 C-15.40608997 -1.26719094 -8.18476964 -1.0307394 0 0 Z " fill="#FAF8FC" transform="translate(582,937)"/>
<path d="M0 0 C1.29808594 -0.00773438 2.59617187 -0.01546875 3.93359375 -0.0234375 C8.98117093 0.53076365 11.29599488 2.12788016 14.859375 5.63671875 C17.92973961 10.57324534 16.79162363 15.70419009 16.5625 21.375 C12.2725 21.375 7.9825 21.375 3.5625 21.375 C3.0675 16.425 3.0675 16.425 2.5625 11.375 C1.2425 11.375 -0.0775 11.375 -1.4375 11.375 C-1.4375 22.265 -1.4375 33.155 -1.4375 44.375 C-0.1175 44.375 1.2025 44.375 2.5625 44.375 C2.8925 40.085 3.2225 35.795 3.5625 31.375 C7.8525 31.375 12.1425 31.375 16.5625 31.375 C17.59557219 46.23976101 17.59557219 46.23976101 13.75 50.75 C8.97711024 55.34611606 3.23197297 54.71308735 -3.0390625 54.6484375 C-7.63938521 54.27829659 -9.27334458 53.71019085 -12.4375 50.375 C-16.00178959 43.38092232 -15.92816766 36.85289973 -15.88354492 29.13232422 C-15.87501991 26.8802589 -15.90386919 24.63072279 -15.93554688 22.37890625 C-15.93715903 20.92968825 -15.93658108 19.48046582 -15.93359375 18.03125 C-15.93544678 16.72994141 -15.9372998 15.42863281 -15.93920898 14.08789062 C-15.24003604 8.91367059 -13.24878798 5.3170812 -9.65234375 1.4609375 C-6.39826284 -0.1345378 -3.60288134 -0.02142447 0 0 Z " fill="#FCFAFD" transform="translate(839.4375,936.625)"/>
<path d="M0 0 C17.16 0 34.32 0 52 0 C52 29.04 52 58.08 52 88 C51.34 88 50.68 88 50 88 C50 59.29 50 30.58 50 1 C34.16 1 18.32 1 2 1 C2 74.26 2 147.52 2 223 C17.84 223 33.68 223 50 223 C50 195.61 50 168.22 50 140 C50.66 140 51.32 140 52 140 C52 168.05 52 196.1 52 225 C34.84 225 17.68 225 0 225 C0 150.75 0 76.5 0 0 Z " fill="#D13851" transform="translate(711,664)"/>
<path d="M0 0 C4.29 0 8.58 0 13 0 C13 3.96 13 7.92 13 12 C14.32 12 15.64 12 17 12 C17 15.3 17 18.6 17 22 C15.68 22 14.36 22 13 22 C13 32.89 13 43.78 13 55 C14.32 55 15.64 55 17 55 C17 57.97 17 60.94 17 64 C12.55921344 65.48026219 8.05707797 65.7037372 3.625 64.1875 C2 63 2 63 0 60 C-0.17207928 57.09815132 -0.23201104 54.29455753 -0.1953125 51.39453125 C-0.1924826 50.55532639 -0.18965271 49.71612152 -0.18673706 48.85148621 C-0.17554385 46.17167897 -0.15044101 43.49220619 -0.125 40.8125 C-0.11496908 38.99544754 -0.10584343 37.17838983 -0.09765625 35.36132812 C-0.07560734 30.90742325 -0.04108351 26.45376833 0 22 C-0.99 22 -1.98 22 -3 22 C-3 18.7 -3 15.4 -3 12 C-2.01 12 -1.02 12 0 12 C0 8.04 0 4.08 0 0 Z " fill="#F9F7FB" transform="translate(428,927)"/>
<path d="M0 0 C4.29 0 8.58 0 13 0 C13 3.96 13 7.92 13 12 C14.32 12 15.64 12 17 12 C17 15.3 17 18.6 17 22 C15.68 22 14.36 22 13 22 C13.33 32.56 13.66 43.12 14 54 C15.485 54.495 15.485 54.495 17 55 C17 57.97 17 60.94 17 64 C12.55557786 65.48147405 8.1349399 65.56182629 3.625 64.375 C1.14651109 62.27781707 0.82820665 60.11876425 0 57 C-0.16237778 54.21513377 -0.23437565 51.53777516 -0.1953125 48.7578125 C-0.1924826 47.98944061 -0.18965271 47.22106873 -0.18673706 46.42941284 C-0.17561311 43.99444479 -0.1505236 41.55985538 -0.125 39.125 C-0.11496011 37.46615118 -0.10583603 35.80729654 -0.09765625 34.1484375 C-0.07569937 30.09881421 -0.04122406 26.04947113 0 22 C-0.99 22 -1.98 22 -3 22 C-3 18.7 -3 15.4 -3 12 C-2.01 12 -1.02 12 0 12 C0 8.04 0 4.08 0 0 Z " fill="#F8F6F9" transform="translate(1052,927)"/>
<path d="M0 0 C4.29 0 8.58 0 13 0 C13 3.96 13 7.92 13 12 C13.99 12 14.98 12 16 12 C16 15.3 16 18.6 16 22 C15.01 22 14.02 22 13 22 C13 32.89 13 43.78 13 55 C13.99 55 14.98 55 16 55 C16 57.97 16 60.94 16 64 C12.35001694 65.21666102 8.78201543 65.75501773 5 65 C2.3972168 63.53100586 2.3972168 63.53100586 0 61 C-0.69850023 58.02221266 -0.5826593 55.12245701 -0.48828125 52.078125 C-0.48120651 51.21813904 -0.47413177 50.35815308 -0.46684265 49.47210693 C-0.43889611 46.7305125 -0.3761598 43.990975 -0.3125 41.25 C-0.28741734 39.38935245 -0.26460411 37.52867283 -0.24414062 35.66796875 C-0.18906887 31.11118894 -0.10279655 26.55594296 0 22 C-1.32 22 -2.64 22 -4 22 C-4 18.7 -4 15.4 -4 12 C-2.68 12 -1.36 12 0 12 C0 8.04 0 4.08 0 0 Z " fill="#F9F7FB" transform="translate(766,927)"/>
<path d="M0 0 C4.29 0 8.58 0 13 0 C13 3.96 13 7.92 13 12 C13.99 12 14.98 12 16 12 C16 15.3 16 18.6 16 22 C15.01 22 14.02 22 13 22 C13 32.89 13 43.78 13 55 C13.99 55 14.98 55 16 55 C16 57.97 16 60.94 16 64 C12.35001694 65.21666102 8.78201543 65.75501773 5 65 C2.3972168 63.53100586 2.3972168 63.53100586 0 61 C-0.69850023 58.02221266 -0.5826593 55.12245701 -0.48828125 52.078125 C-0.48120651 51.21813904 -0.47413177 50.35815308 -0.46684265 49.47210693 C-0.43889611 46.7305125 -0.3761598 43.990975 -0.3125 41.25 C-0.28741734 39.38935245 -0.26460411 37.52867283 -0.24414062 35.66796875 C-0.18906887 31.11118894 -0.10279655 26.55594296 0 22 C-1.32 22 -2.64 22 -4 22 C-4 18.7 -4 15.4 -4 12 C-2.68 12 -1.36 12 0 12 C0 8.04 0 4.08 0 0 Z " fill="#F9F7FB" transform="translate(597,927)"/>
<path d="M0 0 C4.62 0 9.24 0 14 0 C14.33 0.66 14.66 1.32 15 2 C15.99 1.34 16.98 0.68 18 0 C19.65 0 21.3 0 23 0 C23 3.63 23 7.26 23 11 C18.545 11.495 18.545 11.495 14 12 C14 25.86 14 39.72 14 54 C9.38 54 4.76 54 0 54 C0 36.18 0 18.36 0 0 Z " fill="#F4F1F7" transform="translate(1162,937)"/>
<path d="M0 0 C4.62 0 9.24 0 14 0 C14.33 0.66 14.66 1.32 15 2 C15.99 1.34 16.98 0.68 18 0 C19.65 0 21.3 0 23 0 C23 3.63 23 7.26 23 11 C18.545 11.495 18.545 11.495 14 12 C14 25.86 14 39.72 14 54 C9.38 54 4.76 54 0 54 C0 36.18 0 18.36 0 0 Z " fill="#F4F1F7" transform="translate(400,937)"/>
<path d="M0 0 C4.29 0 8.58 0 13 0 C13 21.12 13 42.24 13 64 C8.71 64 4.42 64 0 64 C0 42.88 0 21.76 0 0 Z " fill="#FEFDFE" transform="translate(745,927)"/>
<path d="M0 0 C4.29 0 8.58 0 13 0 C13.33 0.99 13.66 1.98 14 3 C14.86625 2.2575 14.86625 2.2575 15.75 1.5 C18 0 18 0 22 0 C22 3.63 22 7.26 22 11 C17.545 11.495 17.545 11.495 13 12 C13 25.86 13 39.72 13 54 C8.71 54 4.42 54 0 54 C0 36.18 0 18.36 0 0 Z " fill="#FDFCFE" transform="translate(897,937)"/>
<path d="M0 0 C1.32 0.66 2.64 1.32 4 2 C4 4.64 4 7.28 4 10 C2.55367187 10.54527344 2.55367187 10.54527344 1.078125 11.1015625 C-0.19831111 11.60838272 -1.47433134 12.11625119 -2.75 12.625 C-3.38421875 12.86089844 -4.0184375 13.09679687 -4.671875 13.33984375 C-9.47239978 15.29005694 -11.47892046 17.54788081 -14 22 C-14.556875 22.680625 -15.11375 23.36125 -15.6875 24.0625 C-17.23795076 26.35126065 -17.62273808 28.28371419 -18 31 C-18.33 31 -18.66 31 -19 31 C-19 28.69 -19 26.38 -19 24 C-23.29 24 -27.58 24 -32 24 C-32 27.3 -32 30.6 -32 34 C-34.475 34.495 -34.475 34.495 -37 35 C-39.23102556 30.53794887 -38.04346299 23.78092876 -38 19 C-31.73 19 -25.46 19 -19 19 C-19 13.39 -19 7.78 -19 2 C-18.34 2.66 -17.68 3.32 -17 4 C-16.34 3.01 -15.68 2.02 -15 1 C-14 2 -14 2 -14 7 C-9.71 7 -5.42 7 -1 7 C-1 5.02 -1 3.04 -1 1 C-0.67 0.67 -0.34 0.34 0 0 Z " fill="#291058" transform="translate(537,946)"/>
<path d="M0 0 C0.33 0 0.66 0 1 0 C1.33 2.97 1.66 5.94 2 9 C2.33 8.34 2.66 7.68 3 7 C3.66 7 4.32 7 5 7 C5.92361136 8.43931199 6.84583989 9.87953439 7.76025391 11.32470703 C10.33019041 14.79751213 14.03800788 17.21784296 17.48632812 19.76757812 C20.789964 22.37809085 21.86659883 23.48109668 22.95703125 27.72265625 C23 31 23 31 22 33 C20.68 33 19.36 33 18 33 C16.39274365 29.78548731 16.94251815 26.56387464 17 23 C12.71 23 8.42 23 4 23 C4 24.65 4 26.3 4 28 C3.01 28.33 2.02 28.66 1 29 C1 33.62 1 38.24 1 43 C0.67 43 0.34 43 0 43 C0 28.81 0 14.62 0 0 Z " fill="#2D145C" transform="translate(554,948)"/>
<path d="M0 0 C1.65 0.33 3.3 0.66 5 1 C5 11.56 5 22.12 5 33 C2.525 33.495 2.525 33.495 0 34 C-1.67673649 32.32326351 -1.12787817 30.27144924 -1.13894653 28.03344727 C-1.1369223 27.34178467 -1.13489807 26.65012207 -1.1328125 25.9375 C-1.13376923 25.23101318 -1.13472595 24.52452637 -1.13571167 23.79663086 C-1.13639333 22.30029207 -1.13454005 20.80395033 -1.13037109 19.30761719 C-1.12502257 17.00969843 -1.13031651 14.71197514 -1.13671875 12.4140625 C-1.13605797 10.96354123 -1.1347768 9.51302009 -1.1328125 8.0625 C-1.13483673 7.3708374 -1.13686096 6.6791748 -1.13894653 5.96655273 C-1.11495224 1.11495224 -1.11495224 1.11495224 0 0 Z " fill="#200652" transform="translate(1139,947)"/>
<path d="M0 0 C1.65 0.33 3.3 0.66 5 1 C5 11.56 5 22.12 5 33 C2.525 33.495 2.525 33.495 0 34 C-1.48125044 31.03749913 -1.12990684 28.36087105 -1.1328125 25.05859375 C-1.13376923 24.37571793 -1.13472595 23.6928421 -1.13571167 22.98927307 C-1.13639223 21.54598905 -1.1345466 20.10270197 -1.13037109 18.65942383 C-1.12501282 16.44280172 -1.13032443 14.22638148 -1.13671875 12.00976562 C-1.13605811 10.60937455 -1.13477723 9.2089836 -1.1328125 7.80859375 C-1.13168457 6.52782959 -1.13055664 5.24706543 -1.12939453 3.92749023 C-1 1 -1 1 0 0 Z " fill="#1F0551" transform="translate(377,947)"/>
<path d="M0 0 C0.33 0 0.66 0 1 0 C1 20.46 1 40.92 1 62 C0.67 62 0.34 62 0 62 C-0.33 48.8 -0.66 35.6 -1 22 C-1.33 22 -1.66 22 -2 22 C-2 19.69 -2 17.38 -2 15 C-1.67 15 -1.34 15 -1 15 C-0.67 10.05 -0.34 5.1 0 0 Z M-6 22 C-4.68 22.33 -3.36 22.66 -2 23 C-2.99 23.33 -3.98 23.66 -5 24 C-4.88182083 27.95121228 -4.75757767 31.90218229 -4.62768555 35.85302734 C-4.56301749 37.85894807 -4.50316894 39.86502228 -4.44335938 41.87109375 C-4.40146484 43.12792969 -4.35957031 44.38476562 -4.31640625 45.6796875 C-4.26141968 47.42354736 -4.26141968 47.42354736 -4.20532227 49.20263672 C-4.18178341 51.9535501 -4.18178341 51.9535501 -3 54 C-3.99 54 -4.98 54 -6 54 C-6 43.44 -6 32.88 -6 22 Z " fill="#1B0448" transform="translate(785,927)"/>
<path d="M0 0 C0.33 0 0.66 0 1 0 C1 22.44 1 44.88 1 68 C1.66 68 2.32 68 3 68 C3.33 66.02 3.66 64.04 4 62 C5.04940487 65.14821462 4.98606526 65.9349491 4.22265625 69.01171875 C4.03896484 69.76904297 3.85527344 70.52636719 3.66601562 71.30664062 C3.46685547 72.09232422 3.26769531 72.87800781 3.0625 73.6875 C2.76956055 74.88342773 2.76956055 74.88342773 2.47070312 76.10351562 C1.98771618 78.07080389 1.4948037 80.03565054 1 82 C0.67 82 0.34 82 0 82 C0 54.94 0 27.88 0 0 Z " fill="#DA3E55" transform="translate(828,804)"/>
<path d="M0 0 C0.02690104 2.79173055 0.04679053 5.58320348 0.0625 8.375 C0.07087891 9.1690625 0.07925781 9.963125 0.08789062 10.78125 C0.11328125 16.7734375 0.11328125 16.7734375 -1 19 C-2.32 19 -3.64 19 -5 19 C-7.09450094 14.81099812 -6.56342339 9.54979531 -6 5 C-4.74747604 2.79790915 -2.83280398 0 0 0 Z " fill="#3E2A62" transform="translate(879,962)"/>
<path d="M0 0 C0.02690104 2.79173055 0.04679053 5.58320348 0.0625 8.375 C0.07087891 9.1690625 0.07925781 9.963125 0.08789062 10.78125 C0.11328125 16.7734375 0.11328125 16.7734375 -1 19 C-2.32 19 -3.64 19 -5 19 C-7.09450094 14.81099812 -6.56342339 9.54979531 -6 5 C-4.74747604 2.79790915 -2.83280398 0 0 0 Z " fill="#341D5E" transform="translate(727,962)"/>
<path d="M0 0 C0.02690844 2.62506802 0.04679404 5.24986173 0.0625 7.875 C0.07087891 8.62136719 0.07925781 9.36773438 0.08789062 10.13671875 C0.11328125 15.7734375 0.11328125 15.7734375 -1 18 C-2.32 18 -3.64 18 -5 18 C-6.34283649 15.31432703 -6.24287519 13.12253147 -6.3125 10.125 C-6.34988281 9.07570313 -6.38726563 8.02640625 -6.42578125 6.9453125 C-5.88181538 3.18246599 -4.16441523 0 0 0 Z " fill="#2E1759" transform="translate(541,963)"/>
<path d="M0 0 C0.33 0 0.66 0 1 0 C1.02689216 1.47906892 1.04634621 2.95827483 1.0625 4.4375 C1.07410156 5.26121094 1.08570313 6.08492187 1.09765625 6.93359375 C1 9 1 9 0 10 C-0.20604085 11.32781878 -0.3662959 12.66295895 -0.5 14 C-0.88888889 17.88888889 -0.88888889 17.88888889 -2 19 C-2.20604085 20.32781878 -2.3662959 21.66295895 -2.5 23 C-2.88888889 26.88888889 -2.88888889 26.88888889 -4 28 C-4.165 29.155 -4.33 30.31 -4.5 31.5 C-5 35 -5 35 -6 36 C-6.12375 37.175625 -6.2475 38.35125 -6.375 39.5625 C-6.87234178 44.07118861 -8.28082888 47.81419207 -10 52 C-10.33 52 -10.66 52 -11 52 C-10.38957699 45.40801558 -9.25177941 39.14910177 -7.71484375 32.71484375 C-7.3840255 31.30230064 -7.3840255 31.30230064 -7.04652405 29.86122131 C-6.34842276 26.88546815 -5.64308934 23.91148552 -4.9375 20.9375 C-4.45980533 18.90701417 -3.98258713 16.87641619 -3.50585938 14.84570312 C-2.34274268 9.89582203 -1.17314159 4.9475143 0 0 Z " fill="#46023C" transform="translate(852,782)"/>
<path d="M0 0 C1.65 0.33 3.3 0.66 5 1 C5 4.63 5 8.26 5 12 C3.02 12 1.04 12 -1 12 C-1.02698189 10.37509046 -1.04638757 8.75005367 -1.0625 7.125 C-1.07410156 6.22007812 -1.08570313 5.31515625 -1.09765625 4.3828125 C-1 2 -1 2 0 0 Z " fill="#443167" transform="translate(500,947)"/>
<path d="M0 0 C1.65 0.33 3.3 0.66 5 1 C5 4.63 5 8.26 5 12 C3.02 12 1.04 12 -1 12 C-1.02698189 10.37509046 -1.04638757 8.75005367 -1.0625 7.125 C-1.07410156 6.22007812 -1.08570313 5.31515625 -1.09765625 4.3828125 C-1 2 -1 2 0 0 Z " fill="#3E2963" transform="translate(936,947)"/>
<path d="M0 0 C1.32 0.66 2.64 1.32 4 2 C4 5.3 4 8.6 4 12 C2.02 12 0.04 12 -2 12 C-2.05395478 10.37536158 -2.09277195 8.75021459 -2.125 7.125 C-2.14820313 6.22007812 -2.17140625 5.31515625 -2.1953125 4.3828125 C-2 2 -2 2 0 0 Z " fill="#250D51" transform="translate(687,946)"/>
<path d="M0 0 C0.33 0 0.66 0 1 0 C1.23063489 6.22714197 0.61194704 11.96402315 -1 18 C-1.33 18.33 -1.66 18.66 -2 19 C-2.23280365 20.9289445 -2.46359534 22.85817447 -2.6796875 24.7890625 C-3.14158065 27.97725182 -4.03994169 30.92781342 -5 34 C-5.66 34 -6.32 34 -7 34 C-6.28418236 26.67872592 -4.63081979 19.65044553 -2.9375 12.5 C-2.65583984 11.29601562 -2.37417969 10.09203125 -2.08398438 8.8515625 C-1.39298183 5.90016178 -0.69822701 2.94969839 0 0 Z " fill="#49033B" transform="translate(840,834)"/>
<path d="M0 0 C0.33 0 0.66 0 1 0 C1 2.97 1 5.94 1 9 C0.34 9 -0.32 9 -1 9 C-0.979375 10.299375 -0.95875 11.59875 -0.9375 12.9375 C-0.91600546 14.29165633 -0.92851801 15.64756083 -1 17 C-1.33 17.33 -1.66 17.66 -2 18 C-2.2165625 19.546875 -2.2165625 19.546875 -2.4375 21.125 C-2.9917917 24.94345392 -3.87414012 28.32219105 -5 32 C-3.68 32.33 -2.36 32.66 -1 33 C-3.97 33.495 -3.97 33.495 -7 34 C-6.36624893 26.43509803 -4.76765871 19.2963516 -2.9375 11.9375 C-2.65583984 10.78572266 -2.37417969 9.63394531 -2.08398438 8.44726562 C-1.39433819 5.6302363 -0.69957333 2.81457733 0 0 Z " fill="#E03C4F" transform="translate(884,685)"/>
<path d="M0 0 C6.27 0 12.54 0 19 0 C18.67 0.66 18.34 1.32 18 2 C12.39 2 6.78 2 1 2 C1.12375 3.794375 1.2475 5.58875 1.375 7.4375 C1.44460938 8.44683594 1.51421875 9.45617187 1.5859375 10.49609375 C1.72257812 11.32238281 1.85921875 12.14867187 2 13 C2.66 13.33 3.32 13.66 4 14 C4 14.66 4 15.32 4 16 C2.68 15.67 1.36 15.34 0 15 C0 10.05 0 5.1 0 0 Z " fill="#1B0445" transform="translate(1027,965)"/>
<path d="M0 0 C1.98 0.495 1.98 0.495 4 1 C4 4.63 4 8.26 4 12 C2.35 12 0.7 12 -1 12 C-1.02698189 10.37509046 -1.04638757 8.75005367 -1.0625 7.125 C-1.07410156 6.22007812 -1.08570313 5.31515625 -1.09765625 4.3828125 C-1 2 -1 2 0 0 Z " fill="#240B53" transform="translate(1028,946)"/>
<path d="M0 0 C1.32 0 2.64 0 4 0 C4.33 1.98 4.66 3.96 5 6 C9.29 6 13.58 6 18 6 C18 6.33 18 6.66 18 7 C15.39623726 7.27565727 12.79544032 7.52127265 10.1875 7.75 C9.44951172 7.83121094 8.71152344 7.91242187 7.95117188 7.99609375 C5.79296875 8.171875 5.79296875 8.171875 2 8 C-0.03125 6.15625 -0.03125 6.15625 -1 4 C-0.6875 1.75 -0.6875 1.75 0 0 Z " fill="#625181" transform="translate(572,947)"/>
<path d="M0 0 C0.33 0 0.66 0 1 0 C1.02689216 1.47906892 1.04634621 2.95827483 1.0625 4.4375 C1.07410156 5.26121094 1.08570313 6.08492187 1.09765625 6.93359375 C1 9 1 9 0 10 C-0.20604085 11.32781878 -0.3662959 12.66295895 -0.5 14 C-0.88888889 17.88888889 -0.88888889 17.88888889 -2 19 C-2.36760731 21.32817964 -2.70241581 23.6618385 -3 26 C-3.66 26 -4.32 26 -5 26 C-4.35343144 17.10968231 -2.12977433 8.62806252 0 0 Z " fill="#44023C" transform="translate(858,756)"/>
<path d="M0 0 C1.75094115 2.62641172 2.45274638 4.10691211 3.1875 7.0625 C3.36667969 7.75472656 3.54585937 8.44695313 3.73046875 9.16015625 C4 11 4 11 3 13 C2.34 13 1.68 13 1 13 C1 16.63 1 20.26 1 24 C0.67 24 0.34 24 0 24 C0 16.08 0 8.16 0 0 Z " fill="#362358" transform="translate(1201,967)"/>
<path d="M0 0 C0.33 0 0.66 0 1 0 C1.28016473 5.8834594 0.84807429 10.27005358 -1.19921875 15.78125 C-2.40711755 19.12801351 -3.18208402 22.53958626 -4 26 C-4.33 26 -4.66 26 -5 26 C-4.35343144 17.10968231 -2.12977433 8.62806252 0 0 Z " fill="#470239" transform="translate(864,730)"/>
<path d="M0 0 C0.33 0 0.66 0 1 0 C1.28016473 5.8834594 0.84807429 10.27005358 -1.19921875 15.78125 C-2.40711755 19.12801351 -3.18208402 22.53958626 -4 26 C-4.33 26 -4.66 26 -5 26 C-4.35343144 17.10968231 -2.12977433 8.62806252 0 0 Z " fill="#460239" transform="translate(870,704)"/>
<path d="M0 0 C0.33 0 0.66 0 1 0 C1 5.61 1 11.22 1 17 C0.34 17 -0.32 17 -1 17 C-1.22126178 14.54220024 -1.42750395 12.08472352 -1.625 9.625 C-1.68945312 8.92632813 -1.75390625 8.22765625 -1.8203125 7.5078125 C-1.96119739 5.67630889 -1.98761659 3.83687252 -2 2 C-1.34 1.34 -0.68 0.68 0 0 Z " fill="#240858" transform="translate(876,963)"/>
<path d="M0 0 C2.475 0.495 2.475 0.495 5 1 C4.67 3.97 4.34 6.94 4 10 C3.01 10 2.02 10 1 10 C0.67 6.7 0.34 3.4 0 0 Z " fill="#200553" transform="translate(500,947)"/>
<path d="M0 0 C1.67542976 0.28604898 3.34385343 0.61781233 5 1 C5 4.3 5 7.6 5 11 C4.67 11 4.34 11 4 11 C4 8.03 4 5.06 4 2 C3.01 2 2.02 2 1 2 C1 5.63 1 9.26 1 13 C0.67 13 0.34 13 0 13 C-0.19397476 11.02145742 -0.38001321 9.0421352 -0.5625 7.0625 C-0.66691406 5.96035156 -0.77132812 4.85820313 -0.87890625 3.72265625 C-0.91886719 2.82417969 -0.95882812 1.92570313 -1 1 C-0.67 0.67 -0.34 0.34 0 0 Z " fill="#2C1654" transform="translate(838,947)"/>
<path d="M0 0 C0.33 0 0.66 0 1 0 C1.02689216 1.47906892 1.04634621 2.95827483 1.0625 4.4375 C1.07410156 5.26121094 1.08570313 6.08492187 1.09765625 6.93359375 C1 9 1 9 0 10 C-0.36760731 12.32817964 -0.70241581 14.6618385 -1 17 C-1.66 17 -2.32 17 -3 17 C-2.48517081 11.147205 -1.54642808 5.6702363 0 0 Z " fill="#40013B" transform="translate(874,687)"/>
<path d="M0 0 C0.99 0 1.98 0 3 0 C2.67 6.93 2.34 13.86 2 21 C1.67 21 1.34 21 1 21 C0.67 14.07 0.34 7.14 0 0 Z " fill="#1B0349" transform="translate(1045,944)"/>
<path d="M0 0 C5.4389165 -0.21755666 9.87080814 -0.10428384 15 2 C15 2.66 15 3.32 15 4 C15.66 4.33 16.32 4.66 17 5 C11.30694567 3.76123355 5.64629987 2.43723997 0 1 C0 0.67 0 0.34 0 0 Z " fill="#D7394F" transform="translate(907,715)"/>
<path d="M0 0 C0.99 1.32 1.98 2.64 3 4 C2.34 4 1.68 4 1 4 C0.87625 4.515625 0.7525 5.03125 0.625 5.5625 C-0.18641628 8.72702351 -1.0945913 11.86124985 -2 15 C-2.33 15 -2.66 15 -3 15 C-2.5547115 9.72684667 -1.91626837 4.98229776 0 0 Z " fill="#D13953" transform="translate(854,817)"/>
<path d="M0 0 C2.475 0.495 2.475 0.495 5 1 C4.34 3.97 3.68 6.94 3 10 C2.34 10 1.68 10 1 10 C0.67 6.7 0.34 3.4 0 0 Z " fill="#220754" transform="translate(936,947)"/>
<path d="M0 0 C1.96525823 3.93051647 2.59949581 6.67455475 3 11 C2.67 11.66 2.34 12.32 2 13 C1.34 13 0.68 13 0 13 C0 8.71 0 4.42 0 0 Z " fill="#281250" transform="translate(990,966)"/>
<path d="M0 0 C1.32 0 2.64 0 4 0 C4 1.65 4 3.3 4 5 C3.01 5.495 3.01 5.495 2 6 C1.01 5.34 0.02 4.68 -1 4 C-0.67 2.68 -0.34 1.36 0 0 Z " fill="#2D1658" transform="translate(572,947)"/>
<path d="M0 0 C0.33 0 0.66 0 1 0 C0.67 3.63 0.34 7.26 0 11 C1.32 11.33 2.64 11.66 4 12 C2.02 12.33 0.04 12.66 -2 13 C-1.85769192 11.58297487 -1.71099254 10.1663904 -1.5625 8.75 C-1.48128906 7.96109375 -1.40007813 7.1721875 -1.31640625 6.359375 C-1.02365007 4.17635361 -0.57935581 2.1226818 0 0 Z " fill="#CC3A57" transform="translate(879,706)"/>
<path d="M0 0 C0.33 0 0.66 0 1 0 C1 3.3 1 6.6 1 10 C0.34 10 -0.32 10 -1 10 C-2.23076923 4.58461538 -2.23076923 4.58461538 -1.0625 1.625 C-0.5365625 0.820625 -0.5365625 0.820625 0 0 Z " fill="#260D54" transform="translate(343,932)"/>
<path d="M0 0 C1.32 1.32 2.64 2.64 4 4 C2.68 4 1.36 4 0 4 C0 5.98 0 7.96 0 10 C-0.33 10 -0.66 10 -1 10 C-1.02689216 8.52093108 -1.04634621 7.04172517 -1.0625 5.5625 C-1.07410156 4.73878906 -1.08570313 3.91507813 -1.09765625 3.06640625 C-1 1 -1 1 0 0 Z " fill="#3C2761" transform="translate(572,969)"/>
<path d="M0 0 C0.33 0 0.66 0 1 0 C1 2.97 1 5.94 1 9 C0.01 9.33 -0.98 9.66 -2 10 C-2.33 8.35 -2.66 6.7 -3 5 C-2.34 4.67 -1.68 4.34 -1 4 C-0.34786708 1.97536745 -0.34786708 1.97536745 0 0 Z " fill="#1C0547" transform="translate(592,939)"/>
<path d="M0 0 C1.45606519 4.52092968 0.27032841 7.51648796 -1 12 C-1.33 12 -1.66 12 -2 12 C-2.05422947 10.5629191 -2.09289723 9.12524538 -2.125 7.6875 C-2.14820313 6.88699219 -2.17140625 6.08648438 -2.1953125 5.26171875 C-2 3 -2 3 0 0 Z " fill="#47023B" transform="translate(881,694)"/>
<path d="M0 0 C0.33 0 0.66 0 1 0 C1 3.3 1 6.6 1 10 C-0.32 10.33 -1.64 10.66 -3 11 C-3 10.34 -3 9.68 -3 9 C-2.34 9 -1.68 9 -1 9 C-0.67 6.03 -0.34 3.06 0 0 Z " fill="#1C0646" transform="translate(504,970)"/>
<path d="M0 0 C0.33 0 0.66 0 1 0 C1 3.3 1 6.6 1 10 C-0.32 10.33 -1.64 10.66 -3 11 C-3 10.34 -3 9.68 -3 9 C-2.34 8.67 -1.68 8.34 -1 8 C-0.53476937 6.10466658 -0.53476937 6.10466658 -0.375 3.9375 C-0.25125 2.638125 -0.1275 1.33875 0 0 Z " fill="#1C0645" transform="translate(940,970)"/>
</svg>
