<svg version="1.1" id="Layer_1" xmlns="http://www.w3.org/2000/svg" xmlns:xlink="http://www.w3.org/1999/xlink" x="0px" y="0px"
	 width="100%" viewBox="0 0 1325 746" enable-background="new 0 0 1325 746" xml:space="preserve">
<path fill="#1F0156" opacity="1.000000" stroke="none" 
	d="
M1.000000,746.000000 
	C1.000000,497.715485 1.000000,249.431000 1.000000,1.000000 
	C442.030914,1.000000 883.061829,1.000000 1324.546387,1.459705 
	C1325.000000,247.745056 1325.000122,493.570709 1324.995850,739.396362 
	C1324.995728,741.561829 1324.935425,743.727295 1324.463867,745.940002 
	C883.016418,745.991516 442.008209,745.995728 1.000000,746.000000 
M926.605469,535.854492 
	C926.380676,535.574890 926.155884,535.295349 925.397034,534.607483 
	C920.339661,527.775452 913.245056,527.671509 906.004639,529.214844 
	C899.872986,530.521851 895.736938,534.692505 895.563538,541.024109 
	C895.277344,551.476379 895.486206,561.971069 896.137146,572.407288 
	C896.438904,577.244263 899.393616,581.169922 904.352783,582.780518 
	C919.030151,587.547424 930.128113,577.535217 927.067993,562.275757 
	C922.988464,562.275757 918.896912,562.275757 914.846436,562.275757 
	C914.351013,565.746521 913.891418,568.965942 912.642517,571.985718 
	C908.416138,569.309265 909.878174,565.192261 910.453552,561.660645 
	C911.059082,557.944641 914.534912,559.152771 917.021545,559.030945 
	C919.503723,558.909363 922.039856,559.271606 924.466003,558.882812 
	C925.709106,558.683594 926.763550,557.306824 927.727905,556.279358 
	C927.727905,556.279358 927.877380,556.074768 928.567322,555.657349 
	C929.040649,553.642151 929.598389,551.642273 929.966187,549.607971 
	C930.425354,547.068848 930.728149,544.501465 931.993774,542.003418 
	C932.770325,543.254456 934.193481,544.492004 934.220093,545.758728 
	C934.415100,555.062317 934.143127,564.376648 934.389404,573.677795 
	C934.616089,582.237061 938.009827,584.834290 946.505005,583.548645 
	C947.931702,583.332703 949.330383,582.931763 950.953430,582.569092 
	C950.421265,578.883789 953.049927,574.684021 947.789307,572.804749 
	C947.452515,572.684387 947.325500,571.607910 947.323181,570.975342 
	C947.289734,561.834167 947.265137,552.692566 947.339844,543.551941 
	C947.346497,542.740051 947.841919,541.633850 948.478577,541.174194 
	C952.490845,538.276672 951.946411,532.201477 947.007690,529.795471 
	C947.007690,526.402344 947.007690,522.822754 947.007690,519.266846 
	C942.688843,519.266846 938.754761,519.266846 934.313538,519.266846 
	C934.313538,521.279602 934.337341,523.066101 934.306946,524.851624 
	C934.276001,526.669189 934.577942,529.941772 934.070618,530.076355 
	C929.279175,531.347595 931.394348,535.263855 929.982666,537.985718 
	C928.825928,537.431274 927.669128,536.876892 926.640381,536.271240 
	C926.640381,536.271240 926.615845,536.406921 926.605469,535.854492 
M548.977295,582.970825 
	C548.977295,582.970825 548.826721,582.992371 549.460754,582.428528 
	C549.646240,581.634155 549.992310,580.840149 549.993652,580.045410 
	C550.026062,561.118652 550.036804,542.191833 549.983948,523.265198 
	C549.980957,522.184753 549.403442,521.105957 548.612000,519.299805 
	C544.515625,519.299805 540.419250,519.299805 535.875305,519.299805 
	C535.875305,527.006592 535.875305,534.424561 535.875305,542.098572 
	C533.678772,541.977417 531.957703,541.882446 529.930420,541.770630 
	C529.930420,533.993042 529.930420,526.724365 529.930420,519.345215 
	C525.528931,519.345215 521.473755,519.345215 517.157898,519.345215 
	C517.157898,540.436646 517.153503,561.225769 517.191650,582.014771 
	C517.192383,582.400635 517.698303,582.785583 518.238342,583.902710 
	C522.292480,585.264282 526.350159,586.668518 530.066345,582.007874 
	C530.066345,572.769592 530.066345,563.531311 530.066345,553.985596 
	C532.411316,554.099548 534.123718,554.182800 535.993652,554.273682 
	C535.993652,562.241943 535.924622,569.699036 536.039124,577.153381 
	C536.070129,579.173218 536.655823,581.184570 537.450195,583.806885 
	C541.442505,585.336182 545.417236,586.661011 548.977295,582.970825 
M720.446350,572.640991 
	C720.446350,572.640991 720.328613,572.519104 720.676575,571.560059 
	C720.781250,563.193237 720.935181,554.826477 720.960815,546.459473 
	C720.968628,543.920837 721.140442,541.769775 724.768494,542.598083 
	C724.768494,545.196899 724.768494,547.795715 724.768494,550.522766 
	C729.551147,550.522766 733.637817,550.522766 738.206543,550.522766 
	C738.206543,547.840271 738.276611,545.377380 738.193970,542.919739 
	C737.887756,533.808655 732.939819,529.051331 723.237671,528.470215 
	C713.569885,527.891174 706.864563,532.421326 706.214355,541.291748 
	C705.499634,551.041260 705.733765,560.886841 706.055908,570.674072 
	C706.207764,575.286621 708.398315,579.356201 712.840515,581.598816 
	C725.976746,588.230652 738.158691,580.866089 738.218689,566.292419 
	C738.226807,564.318909 738.219849,562.345337 738.219849,560.322510 
	C733.563599,560.322510 729.321411,560.322510 725.589478,560.322510 
	C724.880005,564.519775 724.232056,568.353271 722.573547,572.178650 
	C721.920654,572.338379 721.267822,572.498108 720.446350,572.640991 
M995.896851,582.891724 
	C995.896851,582.891724 995.808899,582.883972 996.577698,582.769897 
	C997.029785,582.143616 997.795898,581.559875 997.887390,580.884827 
	C999.639221,567.959229 1001.432800,555.036926 1002.928101,542.080444 
	C1003.385193,538.119934 1002.977966,534.059692 1002.494751,529.334229 
	C998.409912,529.334229 994.325134,529.334229 990.253845,529.334229 
	C989.369507,537.651550 988.530273,545.545105 987.691040,553.438660 
	C987.447632,553.467468 987.204224,553.496338 986.960876,553.525146 
	C985.832703,545.411072 984.704529,537.297058 983.585632,529.249573 
	C979.469177,529.249573 975.843445,529.249573 972.157288,529.249573 
	C971.246277,536.534241 970.360718,543.615784 969.475098,550.697388 
	C969.048218,550.654297 968.621338,550.611267 968.194397,550.568237 
	C967.275208,543.541199 966.355957,536.514160 965.410034,529.283081 
	C961.576660,529.283081 957.994995,529.283081 954.040222,529.283081 
	C955.906372,544.357178 957.672485,559.179199 959.628906,573.976074 
	C960.041687,577.098633 961.151123,580.129089 962.235718,583.927246 
	C963.776306,584.282349 965.311157,584.916077 966.858337,584.947449 
	C976.954407,585.152344 976.875366,585.099792 978.110229,575.111877 
	C978.252014,573.965149 979.893250,573.003967 981.085022,572.763916 
	C981.725708,576.213501 982.366455,579.663086 983.250000,583.856873 
	C987.589111,585.061768 991.992432,587.037537 995.896851,582.891724 
M350.952515,582.996765 
	C350.952515,582.996765 350.959381,583.062805 351.302429,583.739197 
	C361.085968,587.393188 364.762573,585.091309 364.765717,575.302002 
	C364.768982,565.198486 364.814728,555.094482 364.716248,544.991943 
	C364.699524,543.277588 364.049866,541.569519 363.455811,539.282898 
	C363.398834,538.872681 363.341888,538.462463 363.532776,537.807739 
	C363.377563,537.532654 363.222351,537.257568 362.851318,536.307434 
	C358.949493,527.898804 354.240845,526.554321 344.394104,531.415955 
	C344.394104,527.277466 344.394104,523.366577 344.394104,519.248840 
	C339.651245,519.248840 335.393097,519.248840 331.114044,519.248840 
	C330.984100,519.858521 330.791870,520.341003 330.791290,520.823669 
	C330.767883,540.622314 330.745270,560.420959 330.802734,580.219421 
	C330.805542,581.192383 331.527008,582.163269 332.301941,583.783691 
	C336.296875,584.926880 340.311798,586.345520 344.263214,582.046509 
	C344.335052,569.400635 344.406891,556.754822 345.061737,543.818787 
	C345.545990,542.436951 346.030243,541.055176 346.514465,539.673340 
	C347.307129,540.278992 348.099823,540.884644 348.892487,541.490295 
	C348.975952,543.237427 349.127869,544.984375 349.131653,546.731628 
	C349.154114,557.164551 349.063599,567.598755 349.221985,578.029236 
	C349.247559,579.713257 350.329620,581.381165 350.952515,582.996765 
M307.211945,541.746948 
	C307.823822,544.069763 308.834686,546.368652 308.975159,548.719666 
	C309.457703,556.797058 309.635529,564.892700 310.073395,573.656799 
	C310.037415,574.114075 310.001434,574.571411 309.520142,575.474670 
	C310.001068,576.980774 310.481995,578.486938 311.213196,580.189209 
	C311.213196,580.189209 311.251984,580.504700 311.313477,581.117126 
	C311.612305,581.381104 311.911133,581.645142 312.889374,582.214783 
	C317.502930,584.580566 322.074097,584.040100 326.739563,582.281677 
	C326.739563,579.538818 326.739563,577.061890 326.739563,575.663879 
	C325.124847,573.591125 323.195892,572.262573 323.158661,570.883057 
	C322.894684,561.098206 323.018127,551.302795 323.018127,541.510803 
	C323.520874,541.662720 324.023590,541.814636 324.526337,541.966553 
	C325.301147,540.502441 326.620605,539.079468 326.734985,537.565552 
	C326.958221,534.611572 328.410553,530.649109 322.830261,530.557922 
	C322.830261,526.622253 322.830261,523.020264 322.830261,519.039246 
	C319.220673,519.039246 315.902008,518.809448 312.650696,519.176331 
	C311.647644,519.289490 310.828156,521.029541 309.471069,522.529724 
	C309.623474,524.014771 309.775909,525.499817 310.074249,527.730286 
	C310.027252,528.485168 309.980255,529.239990 309.550262,530.208618 
	C309.323547,530.399414 309.140594,530.625610 308.342316,531.023193 
	C307.893829,531.033325 307.445312,531.043457 306.621552,530.619995 
	C306.090088,530.419861 305.558624,530.219727 304.836426,529.420837 
	C301.819366,530.089539 298.802277,530.758301 295.989960,531.381653 
	C292.532410,526.277100 287.000092,530.424500 282.154938,528.784851 
	C282.154938,547.048645 282.149841,564.506714 282.188385,581.964783 
	C282.189240,582.348145 282.689209,582.730408 283.262695,583.825378 
	C285.806580,584.182312 288.349579,584.545898 290.894562,584.894714 
	C295.385773,585.510254 297.128815,583.766785 296.989014,579.049011 
	C296.688354,568.903931 297.207428,558.730164 296.764648,548.595520 
	C296.546631,543.605591 298.511383,541.574219 303.005981,541.125916 
	C304.322815,540.994629 305.658081,541.048035 307.000000,541.000000 
	C307.000000,541.000000 306.983765,541.016113 307.211945,541.746948 
M797.474670,529.131775 
	C795.699097,530.391602 793.923462,531.651428 792.131348,532.922974 
	C791.953369,531.643555 791.781433,530.407349 791.631897,529.332520 
	C787.186218,529.332520 783.105957,529.332520 778.767395,529.332520 
	C778.767395,546.834900 778.754517,564.051453 778.817200,581.267700 
	C778.819580,581.916504 779.554932,582.562622 780.238953,583.932739 
	C784.299805,585.180176 788.395630,586.786743 791.931641,582.389160 
	C791.931641,582.389160 792.096252,582.019775 792.845398,581.762634 
	C793.226074,580.079041 793.910095,578.399963 793.935547,576.710999 
	C794.052734,568.937317 793.987549,561.160950 793.985413,553.385498 
	C793.982544,542.908264 793.981628,542.908264 804.125977,540.890808 
	C804.383240,551.519226 804.256104,562.176697 805.055908,572.764099 
	C805.471558,578.264893 809.067932,582.036682 814.953918,583.151306 
	C829.737915,585.950867 838.241150,577.552002 835.862793,562.438782 
	C831.638367,562.438782 827.430115,562.438782 823.076660,562.438782 
	C823.076660,564.840759 823.442505,566.929382 822.965210,568.803223 
	C822.555908,570.410095 821.181885,571.771301 820.234436,573.241089 
	C819.273071,571.933105 817.617188,570.692444 817.482605,569.304321 
	C817.103638,565.395142 817.350220,561.425354 817.350220,557.010498 
	C823.789917,557.010498 829.859253,557.010498 836.336975,557.010498 
	C836.336975,552.218262 836.502197,547.897339 836.304504,543.593018 
	C835.810059,532.827393 829.805176,527.725098 819.033264,528.472290 
	C813.155396,528.879944 808.530457,531.262634 804.532837,535.954895 
	C803.593994,533.972412 802.655151,531.989868 801.219055,529.332275 
	C800.448547,529.105896 799.678040,528.879517 798.703003,528.480164 
	C798.412415,528.398926 798.209290,528.508423 797.474670,529.131775 
M1057.467651,581.684814 
	C1057.483154,569.797607 1057.498657,557.910400 1057.965210,545.495178 
	C1058.685791,544.049683 1059.406372,542.604126 1060.910889,541.016357 
	C1067.563721,540.610901 1067.504517,538.288513 1066.255005,528.039185 
	C1063.306396,529.428101 1060.596436,530.704529 1058.277344,531.796936 
	C1054.404175,526.400452 1048.980469,530.296265 1044.078003,528.858154 
	C1044.078003,546.735840 1044.054932,563.805420 1044.156860,580.874329 
	C1044.161377,581.607361 1045.320190,582.333496 1046.703857,583.301147 
	C1050.284912,583.055298 1053.866089,582.809387 1057.467651,581.684814 
M772.489746,535.544189 
	C767.102844,528.346313 755.598511,526.081726 748.033691,530.730042 
	C742.996033,533.825500 740.814575,541.516418 744.226501,545.920471 
	C750.282532,548.290161 754.064331,547.366455 757.471497,542.922913 
	C757.959778,542.286133 759.223755,542.244019 760.522034,542.564087 
	C761.450867,546.722717 759.843811,548.620972 755.624084,549.835571 
	C744.027649,553.173401 741.402893,556.963501 741.646118,568.190491 
	C741.671204,569.349609 741.796814,570.506775 741.884155,571.664246 
	C742.249390,576.499695 743.355469,580.953491 748.522766,582.888672 
	C753.549622,584.771179 757.610291,583.396118 760.279541,578.626038 
	C760.925476,580.390076 761.444519,581.807678 762.252441,583.945312 
	C766.309387,585.186951 770.399963,586.776184 773.941589,582.398682 
	C773.941589,582.398682 774.110657,582.019348 774.858887,581.761169 
	C775.227417,581.065247 775.913513,580.370911 775.917175,579.673035 
	C775.980408,567.542725 776.120667,555.407959 775.823120,543.284546 
	C775.762939,540.833557 773.977112,538.424988 772.489746,535.544189 
M569.002747,571.994934 
	C569.002380,571.830566 569.002136,571.666199 569.001831,571.501831 
	C568.977722,559.199585 568.979919,559.275208 581.242920,558.911804 
	C582.831360,558.864685 584.382568,557.557739 585.964905,556.395813 
	C585.964905,556.395813 586.138916,555.993042 586.507568,555.678467 
	C586.407654,555.120911 586.307678,554.563354 586.050903,553.099670 
	C586.104675,549.728210 586.158386,546.356750 586.630493,542.419250 
	C586.321716,540.973694 586.013000,539.528198 585.247437,537.585632 
	C581.776001,530.105652 575.602417,527.278503 566.216003,528.870300 
	C558.930664,530.105774 554.311218,534.422302 554.071899,541.300476 
	C553.742004,550.784180 553.743896,560.300720 554.144470,569.780273 
	C554.368286,575.077454 556.385376,579.925049 561.800415,582.321716 
	C573.877502,587.666687 585.218750,580.817139 585.925232,567.761353 
	C586.020996,565.991028 585.938354,564.210999 585.938354,562.282959 
	C581.493774,562.282959 577.414307,562.282959 572.955872,562.282959 
	C572.955872,564.824280 573.064575,567.127869 572.925659,569.416504 
	C572.782898,571.768188 572.181946,573.860291 569.002747,571.994934 
M682.585632,581.361023 
	C682.726196,579.560913 682.981018,577.761230 682.988281,575.960571 
	C683.028198,566.027344 683.049438,556.093689 682.982544,546.160828 
	C682.962463,543.178589 683.347717,540.767090 687.671997,541.655090 
	C687.671997,555.383606 687.671997,569.112122 687.671997,582.693542 
	C692.612061,582.693542 696.678894,582.693542 700.922791,582.693542 
	C700.922791,568.559082 700.921814,554.762634 700.923340,540.966248 
	C700.923889,536.165771 699.522888,531.847351 695.037903,529.652649 
	C690.584473,527.473328 686.063965,527.756653 681.750183,533.112732 
	C681.750183,527.553345 681.750183,523.379089 681.750183,519.369507 
	C676.871826,519.369507 672.622986,519.369507 668.107788,519.369507 
	C668.107788,540.313782 668.100891,560.928772 668.145020,581.543701 
	C668.146240,582.090149 668.701721,582.635376 669.261841,583.914429 
	C673.618042,585.005188 678.067566,587.119141 681.888123,582.364319 
	C681.888123,582.364319 682.061462,582.006531 682.585632,581.361023 
M878.230957,583.833374 
	C882.165771,584.117859 886.100647,584.402283 890.035461,584.686707 
	C890.050903,584.127502 890.066345,583.568359 890.383240,582.496826 
	C890.497009,582.334656 890.610779,582.172424 891.333374,581.598999 
	C891.549805,580.991272 891.954102,580.383850 891.955322,579.775696 
	C891.994812,560.853455 892.014343,541.931152 891.946228,523.009094 
	C891.942627,522.016357 891.143799,521.026489 890.043213,519.382568 
	C886.113770,519.382568 882.184326,519.382568 877.934692,519.382568 
	C877.934692,528.078857 877.934692,536.620911 877.934692,545.162964 
	C877.688354,545.192566 877.442078,545.222168 877.195740,545.251770 
	C875.457336,536.559326 873.718933,527.866882 871.999023,519.266846 
	C867.412415,519.266846 863.299438,519.266846 858.959717,519.266846 
	C858.959717,540.532043 858.959717,561.577515 858.959717,582.814819 
	C863.114075,582.814819 867.035034,582.814819 871.658630,582.814819 
	C871.658630,574.571045 871.658630,566.514343 871.658630,558.457703 
	C871.944153,558.463745 872.229736,558.469788 872.515259,558.475830 
	C874.338501,566.678162 876.161682,574.880554 878.230957,583.833374 
M932.339844,480.764923 
	C932.895447,479.201721 933.899841,477.647491 933.931274,476.073822 
	C934.093750,467.943695 934.007385,459.808563 934.007263,451.675201 
	C934.007080,428.436981 933.993652,405.198761 934.028259,381.960602 
	C934.031433,379.796844 933.203247,376.948242 937.634094,377.236481 
	C966.512085,410.562897 995.416077,443.866852 1024.212402,477.263641 
	C1026.240479,479.615753 1028.177612,480.685577 1031.352905,480.657135 
	C1049.495117,480.494812 1067.639526,480.591858 1085.783203,480.553741 
	C1087.420898,480.550293 1089.057739,480.212280 1091.514648,479.846313 
	C1092.008057,478.389221 1092.931641,476.932587 1092.933105,475.475037 
	C1093.002930,403.768158 1093.005859,332.061188 1092.904663,260.354401 
	C1092.902588,258.903137 1091.582886,257.453735 1090.317017,255.373795 
	C1089.849976,255.223267 1089.382812,254.941223 1088.915771,254.941101 
	C1067.591187,254.935745 1046.266602,254.953110 1024.942017,254.994568 
	C1024.684448,254.995056 1024.427612,255.342957 1023.781250,255.809662 
	C1023.781250,291.912415 1023.781250,328.289886 1023.781250,365.666809 
	C1021.807861,363.524048 1020.452820,362.147949 1019.203308,360.681915 
	C990.031982,326.455078 960.905640,292.189728 931.610657,258.069092 
	C930.154358,256.372894 927.272461,255.081375 925.019104,255.025650 
	C913.030579,254.729218 901.030701,254.887466 889.034790,254.887985 
	C881.419067,254.888306 873.803406,254.888031 865.967957,254.888031 
	C865.967957,330.273987 865.967957,405.171661 865.967957,480.579437 
	C867.968140,480.579437 869.762024,480.571716 871.555725,480.580627 
	C891.534912,480.679749 911.514160,480.781494 932.339844,480.764923 
M426.500214,480.875336 
	C480.607147,480.875336 534.714111,480.875336 589.008057,480.875336 
	C589.008057,462.365326 589.008057,444.745148 589.008057,426.388184 
	C547.300903,426.388184 505.782745,426.388184 464.432343,426.388184 
	C464.432343,414.553467 464.432343,403.457458 464.432343,391.874878 
	C499.476562,391.874878 534.212341,391.874878 568.951965,391.874878 
	C568.951965,374.438995 568.951965,357.499237 568.951965,340.056305 
	C534.018738,340.056305 499.288757,340.056305 464.417053,340.056305 
	C464.417053,329.493988 464.417053,319.438263 464.417053,308.811493 
	C505.415619,308.811493 546.119263,308.811493 586.725464,308.811493 
	C586.725464,290.620239 586.725464,273.003784 586.725464,255.031097 
	C514.131592,255.031097 441.749664,255.031097 368.767944,255.031097 
	C368.767944,291.798309 368.767944,328.285950 368.767944,365.892426 
	C366.424622,363.230438 364.875488,361.519318 363.378998,359.763336 
	C334.420135,325.783508 305.497009,291.773071 276.420837,257.893921 
	C275.052673,256.299774 272.343964,255.043457 270.242859,255.018265 
	C251.748520,254.796509 233.250381,254.883759 214.753387,254.903473 
	C213.479706,254.904831 212.206238,255.098480 211.052856,255.192871 
	C211.052856,330.436157 211.052856,405.326752 211.052856,480.325134 
	C233.171509,480.325134 254.936813,480.325134 277.260681,480.325134 
	C277.260681,444.215729 277.260681,408.361267 277.260681,372.506805 
	C278.940887,372.922943 279.616791,373.795044 280.338135,374.627808 
	C310.007050,408.879181 339.648010,443.154968 369.446838,477.292969 
	C370.937500,479.000702 373.781830,480.388184 376.028290,480.437164 
	C392.514282,480.796387 409.008484,480.776062 426.500214,480.875336 
M710.017639,309.500000 
	C710.017639,320.918152 710.017639,332.336334 710.017639,344.119293 
	C707.660217,344.119293 706.179504,344.119232 704.698730,344.119293 
	C686.868896,344.120300 669.036804,343.968353 651.210632,344.225403 
	C646.509338,344.293182 644.948608,343.139557 644.997437,338.183197 
	C645.248596,312.690704 645.000916,287.193420 645.213074,261.700195 
	C645.251892,257.034058 643.807068,255.783401 639.268555,255.875824 
	C625.610168,256.153992 611.941040,256.093170 598.279541,255.908829 
	C594.413269,255.856674 593.137390,256.975037 593.143677,260.988251 
	C593.255554,332.640686 593.252380,404.293396 593.150513,475.945892 
	C593.144714,480.016266 594.673767,481.074341 598.436035,481.035400 
	C612.265137,480.892212 626.099182,480.830902 639.925720,481.069641 
	C644.226257,481.143860 645.214844,479.569061 645.189819,475.558014 
	C645.036804,451.063782 645.202271,426.567505 645.034424,402.073456 
	C645.004456,397.697479 645.981934,395.938416 650.807373,396.012573 
	C668.799561,396.289246 686.800171,396.246490 704.794006,396.028503 
	C709.064941,395.976776 710.120728,397.445557 710.092285,401.481171 
	C709.933838,423.975616 710.016907,446.471802 710.017334,468.967377 
	C710.017334,471.411865 710.017334,473.856354 710.017334,476.300842 
	C710.386047,476.319092 710.754761,476.337311 711.123474,476.355560 
	C727.964844,403.154327 744.806213,329.953125 761.825745,255.977463 
	C745.272400,255.977463 730.138550,256.097076 715.008972,255.896347 
	C711.050842,255.843842 709.890930,257.083099 709.940002,261.010345 
	C710.137695,276.838074 710.019287,292.669769 710.017639,309.500000 
M764.018188,479.709351 
	C772.790833,479.890991 781.587097,480.572815 790.331665,480.159882 
	C815.951843,478.950226 837.827698,468.650360 856.933228,451.855255 
	C860.099243,449.072083 860.039062,447.310211 857.041016,444.375214 
	C847.279419,434.819061 837.703857,425.065491 828.288574,415.167419 
	C825.335938,412.063324 823.362183,412.119812 820.078430,414.814941 
	C796.189575,434.422028 764.187378,433.935822 740.957458,413.866455 
	C739.528076,412.631531 737.974365,411.540436 735.828491,409.879272 
	C731.600525,428.251740 727.520447,445.686310 723.726685,463.182953 
	C723.493103,464.260162 725.225830,466.352264 726.538757,467.083923 
	C737.970398,473.454620 750.179016,477.642029 764.018188,479.709351 
M808.437622,313.984589 
	C812.698730,316.863007 817.200195,319.452209 821.135498,322.722565 
	C823.712952,324.864471 825.135620,324.634460 827.309204,322.419556 
	C837.344482,312.192932 847.516357,302.100433 857.612244,291.933105 
	C858.520142,291.018890 859.235291,289.913269 860.092102,288.830597 
	C859.571350,288.085663 859.281128,287.473877 858.821838,287.041748 
	C835.617859,265.209747 808.210815,254.599167 776.243164,255.876038 
	C772.352295,256.031433 770.765137,257.469147 769.993286,261.154297 
	C767.952820,270.895691 765.547302,280.560181 763.335205,290.266266 
	C761.807983,296.967407 760.360779,303.686798 758.648071,311.437653 
	C776.056396,306.153351 792.159058,306.033051 808.437622,313.984589 
M239.727859,577.326660 
	C239.727859,558.056335 239.727859,538.786072 239.727859,519.413879 
	C235.213013,519.413879 231.186325,519.413879 226.904144,519.413879 
	C226.904144,527.682556 226.904144,535.575195 226.904144,543.467896 
	C226.646484,543.504089 226.388840,543.540222 226.131180,543.576416 
	C224.534805,535.526306 222.938431,527.476196 221.313568,519.282349 
	C216.824631,519.282349 212.589340,519.282349 208.212448,519.282349 
	C208.212448,540.578125 208.212448,561.626526 208.212448,582.633789 
	C212.503677,582.633789 216.528564,582.633789 220.867065,582.633789 
	C220.867065,573.974182 220.867065,565.711853 220.867065,557.449585 
	C221.128616,557.415527 221.390167,557.381470 221.651733,557.347473 
	C223.410660,565.864258 225.169601,574.381042 226.914948,582.831970 
	C231.305817,582.831970 235.256744,582.831970 239.499634,582.831970 
	C239.581879,581.197754 239.655243,579.740295 239.727859,577.326660 
M1097.491699,560.893738 
	C1094.933105,555.553955 1094.554077,550.359253 1097.200806,544.738525 
	C1099.493896,539.868713 1100.866333,534.565430 1102.736450,529.193115 
	C1097.886353,529.193115 1093.591553,529.193115 1089.177002,529.193115 
	C1087.360718,534.352234 1085.577759,539.416321 1083.794800,544.480347 
	C1083.450806,544.414307 1083.106689,544.348267 1082.762695,544.282227 
	C1082.762695,535.923767 1082.762695,527.565369 1082.762695,519.424805 
	C1078.192627,519.424805 1074.135010,519.424805 1070.346191,519.424805 
	C1070.346191,540.850891 1070.346191,561.893555 1070.346191,582.789124 
	C1074.675415,582.789124 1078.620483,582.789124 1082.972534,582.789124 
	C1082.972534,578.941284 1082.972412,575.319824 1082.972412,571.698364 
	C1082.972412,568.091187 1082.972534,564.484009 1082.972534,560.876770 
	C1085.846680,567.077271 1087.815796,573.486206 1090.050293,579.801147 
	C1090.495972,581.060852 1091.875610,582.776001 1092.960815,582.881653 
	C1096.819946,583.257324 1100.738037,583.028381 1105.042114,583.028381 
	C1102.460938,575.436951 1100.113770,568.533813 1097.491699,560.893738 
M250.925949,531.301086 
	C246.740723,534.399658 244.714645,538.721741 244.621643,543.760620 
	C244.465195,552.237671 244.314102,560.740662 244.793549,569.196838 
	C245.342331,578.875549 251.022293,583.672729 260.886017,583.683228 
	C270.916718,583.693909 276.597473,578.718262 277.166626,568.804382 
	C277.576111,561.671936 277.447205,554.503418 277.410217,547.351685 
	C277.326843,531.236023 266.400391,524.315186 250.925949,531.301086 
M1019.339539,528.810791 
	C1010.875244,531.133728 1006.992432,535.262634 1006.630066,543.790894 
	C1006.263672,552.414917 1006.302002,561.093750 1006.829346,569.707825 
	C1007.395874,578.960815 1013.200867,583.673218 1022.870483,583.687744 
	C1032.707153,583.702515 1038.544678,578.788940 1039.098511,569.306396 
	C1039.553589,561.514526 1039.503174,553.679688 1039.362183,545.869568 
	C1039.141479,533.651855 1032.425415,527.758423 1019.339539,528.810791 
M400.126648,568.736023 
	C400.126648,566.623169 400.126648,564.510254 400.126648,562.424805 
	C395.659698,562.424805 391.450623,562.424805 387.053864,562.424805 
	C387.053864,565.143188 387.369598,567.530762 386.931763,569.771057 
	C386.681458,571.051941 385.204651,572.093201 384.280060,573.242371 
	C383.333588,572.112488 381.671204,571.042419 381.570984,569.841919 
	C381.230164,565.759338 381.440704,561.630737 381.440704,557.051819 
	C387.765930,557.051819 393.837402,557.051819 400.190399,557.051819 
	C400.190399,551.606323 400.488892,546.611877 400.124786,541.666260 
	C399.478210,532.883301 394.100647,528.460999 384.614227,528.401917 
	C375.004364,528.342163 368.559692,533.394287 368.167755,542.082886 
	C367.770630,550.885742 367.795197,559.735046 368.210419,568.536926 
	C368.462921,573.889343 369.915649,579.127686 375.361603,581.970703 
	C386.342346,587.703125 398.235840,581.720764 400.126648,568.736023 
M590.905151,558.680603 
	C590.854126,564.579102 590.424072,570.507324 590.882507,576.365967 
	C591.198914,580.410706 594.398071,582.559570 598.328796,583.399292 
	C602.159729,584.217712 605.209595,583.145264 607.403870,579.817261 
	C607.639587,579.459778 608.085632,579.240906 608.652527,578.780273 
	C608.826599,580.310364 608.969482,581.566162 609.106445,582.770203 
	C613.367737,582.770203 617.463867,582.770203 621.919617,582.770203 
	C621.919617,569.566833 621.949585,556.620972 621.910034,543.675293 
	C621.879150,533.578491 616.130615,528.172852 605.821350,528.435059 
	C594.626404,528.719666 590.084045,533.509399 590.621155,544.754333 
	C594.693237,544.754333 598.783081,544.754333 602.881470,544.754333 
	C603.153748,543.205261 603.206909,541.662537 603.749573,540.317322 
	C604.038940,539.599854 605.128235,538.920410 605.943237,538.797241 
	C606.509094,538.711548 607.429321,539.466064 607.836121,540.080383 
	C610.118042,543.526306 608.443115,548.015564 604.571167,549.352783 
	C599.419739,551.132019 593.858643,552.328613 590.905151,558.680603 
M421.580139,579.874695 
	C421.694305,579.753418 421.793671,579.611145 421.927124,579.517212 
	C422.043701,579.435181 422.198669,579.407715 422.336700,579.356201 
	C422.762085,580.575073 423.187469,581.793945 423.537018,582.795532 
	C427.848755,582.795532 431.798157,582.795532 435.661041,582.795532 
	C435.871307,582.279236 436.090576,581.991333 436.091461,581.702698 
	C436.127777,569.711121 436.162384,557.719482 436.158844,545.727844 
	C436.154968,532.642212 430.066986,527.229736 417.103546,528.736694 
	C407.587891,529.842957 403.640564,535.242920 405.308960,544.788086 
	C409.265167,544.788086 413.206604,544.788086 416.132782,544.788086 
	C417.789886,542.322388 419.019684,540.492554 420.249451,538.662720 
	C421.484070,541.565796 422.718658,544.468872 423.996033,547.472534 
	C419.076843,549.285706 415.478638,550.536804 411.939148,551.936523 
	C407.938751,553.518555 404.929749,556.459717 404.638885,560.697693 
	C404.268646,566.092163 404.077606,571.751709 405.307495,576.942017 
	C407.009430,584.124451 415.632629,585.725891 421.580139,579.874695 
M462.042999,545.359131 
	C465.315369,545.359131 468.587708,545.359131 471.818054,545.359131 
	C472.366882,532.920776 464.973907,526.676941 452.638489,528.751160 
	C447.162933,529.671997 442.277618,531.804993 440.673981,537.808960 
	C439.057343,543.861511 440.038483,549.387085 445.065765,553.651367 
	C448.489594,556.555603 452.313019,559.063049 455.358917,562.309753 
	C457.120056,564.187012 457.976349,567.106567 458.641510,569.709900 
	C458.863861,570.580200 457.231293,571.924377 456.446625,573.051941 
	C455.364319,572.052734 453.679382,571.226074 453.332825,570.016113 
	C452.725555,567.896118 452.939331,565.540894 452.811523,563.325195 
	C448.325043,563.325195 444.247711,563.325195 440.077820,563.325195 
	C439.481201,570.835266 439.754517,577.807922 447.121887,581.821411 
	C454.297791,585.730530 465.642334,583.439575 469.889954,577.535034 
	C474.558624,571.045166 473.162537,560.356812 466.598480,554.392090 
	C463.657959,551.719971 460.228912,549.592590 457.126190,547.088379 
	C455.871826,546.075928 454.315918,544.864441 453.962799,543.473083 
	C453.626617,542.148254 454.678802,540.471008 455.120575,538.948730 
	C456.180603,539.912781 457.303497,540.817505 458.283417,541.857056 
	C459.320496,542.957275 460.221527,544.185852 462.042999,545.359131 
M660.670471,544.724487 
	C661.305054,543.490845 661.648560,541.893188 662.637390,541.102539 
	C664.457886,539.646667 665.287842,531.697083 663.257935,531.352966 
	C659.722717,530.753479 660.795044,528.487061 660.701416,526.593018 
	C660.581360,524.165344 660.672180,521.727173 660.672180,519.192017 
	C656.058777,519.192017 652.100037,519.192017 647.881714,519.192017 
	C647.881714,522.978149 647.881714,526.612732 647.881714,530.420776 
	C646.498718,530.839783 645.305664,531.201233 643.919373,531.621216 
	C645.017456,535.314392 641.005249,540.519958 647.787720,541.822693 
	C647.787720,552.956665 647.640625,563.761719 647.838135,574.560486 
	C647.975098,582.044983 650.632812,584.241516 658.167114,583.696899 
	C660.113647,583.556213 662.033264,583.043945 664.468201,582.613342 
	C664.202820,579.582581 664.645264,574.822754 663.606812,574.474060 
	C659.096680,572.960022 660.826172,569.665955 660.748230,567.111877 
	C660.530273,559.970825 660.671692,552.818726 660.670471,544.724487 
M495.194763,532.140564 
	C488.441132,529.601379 493.474579,523.214783 490.959106,519.210449 
	C487.040497,519.210449 483.085022,519.210449 478.876068,519.210449 
	C478.876068,523.014160 478.876068,526.651978 478.876068,530.418152 
	C477.480347,530.845642 476.281738,531.212830 475.217682,531.538757 
	C475.217682,534.714172 475.217682,537.657532 475.217682,540.622070 
	C476.485382,540.962341 477.555725,541.249695 478.750671,541.570496 
	C478.750671,547.193909 478.745209,552.676208 478.752197,558.158447 
	C478.759186,563.644592 478.637268,569.135620 478.827423,574.615662 
	C479.081635,581.943237 481.459595,584.074768 488.731201,583.694763 
	C490.830688,583.585022 492.908569,583.060974 495.735535,582.608643 
	C495.183655,579.395935 494.905731,576.561340 494.152008,573.859436 
	C493.718567,572.305664 491.815186,570.987000 491.772980,569.527832 
	C491.532745,561.221863 491.643738,552.905518 491.665588,544.592712 
	C491.668152,543.616821 491.654663,541.868347 491.988312,541.781372 
	C497.362305,540.380432 494.569305,536.050171 495.194763,532.140564 
M629.629028,519.049927 
	C626.971375,518.625854 626.690369,520.158997 626.727051,522.293884 
	C626.821411,527.783142 626.758240,533.275208 626.758240,538.766113 
	C626.758179,553.365784 626.758240,567.965515 626.758240,582.735718 
	C631.375427,582.735718 635.593872,582.735718 639.808716,582.735718 
	C639.808716,561.419800 639.808716,540.392761 639.808716,519.049377 
	C636.533020,519.049377 633.564575,519.049377 629.629028,519.049927 
z"/>
<path fill="#8F83A9" opacity="1.000000" stroke="none" 
	d="
M1.000000,746.500000 
	C442.008209,745.995728 883.016418,745.991516 1324.736938,745.981812 
	C1325.632812,745.984314 1325.816406,745.992126 1326.000000,746.000000 
	C1325.833374,746.333374 1325.684204,746.943848 1325.497192,746.955566 
	C1324.169067,747.039062 1322.833374,747.000000 1321.500000,747.000000 
	C881.333313,747.000000 441.166656,747.000000 1.000000,746.500000 
z"/>
<path fill="#5B4583" opacity="1.000000" stroke="none" 
	d="
M1326.000000,745.540283 
	C1325.816406,745.992126 1325.632812,745.984314 1325.176147,745.934570 
	C1324.935425,743.727295 1324.995728,741.561829 1324.995850,739.396362 
	C1325.000122,493.570709 1325.000000,247.745056 1325.000000,1.459687 
	C1325.333374,1.166351 1325.943726,1.315317 1325.955566,1.501914 
	C1326.038940,2.829288 1326.000000,4.164322 1326.000000,5.496906 
	C1326.000000,252.024796 1326.000000,498.552673 1326.000000,745.540283 
z"/>
<path fill="#FEFEFE" opacity="1.000000" stroke="none" 
	d="
M426.000183,480.875336 
	C409.008484,480.776062 392.514282,480.796387 376.028290,480.437164 
	C373.781830,480.388184 370.937500,479.000702 369.446838,477.292969 
	C339.648010,443.154968 310.007050,408.879181 280.338135,374.627808 
	C279.616791,373.795044 278.940887,372.922943 277.260681,372.506805 
	C277.260681,408.361267 277.260681,444.215729 277.260681,480.325134 
	C254.936813,480.325134 233.171509,480.325134 211.052856,480.325134 
	C211.052856,405.326752 211.052856,330.436157 211.052856,255.192871 
	C212.206238,255.098480 213.479706,254.904831 214.753387,254.903473 
	C233.250381,254.883759 251.748520,254.796509 270.242859,255.018265 
	C272.343964,255.043457 275.052673,256.299774 276.420837,257.893921 
	C305.497009,291.773071 334.420135,325.783508 363.378998,359.763336 
	C364.875488,361.519318 366.424622,363.230438 368.767944,365.892426 
	C368.767944,328.285950 368.767944,291.798309 368.767944,255.031097 
	C441.749664,255.031097 514.131592,255.031097 586.725464,255.031097 
	C586.725464,273.003784 586.725464,290.620239 586.725464,308.811493 
	C546.119263,308.811493 505.415619,308.811493 464.417053,308.811493 
	C464.417053,319.438263 464.417053,329.493988 464.417053,340.056305 
	C499.288757,340.056305 534.018738,340.056305 568.951965,340.056305 
	C568.951965,357.499237 568.951965,374.438995 568.951965,391.874878 
	C534.212341,391.874878 499.476562,391.874878 464.432343,391.874878 
	C464.432343,403.457458 464.432343,414.553467 464.432343,426.388184 
	C505.782745,426.388184 547.300903,426.388184 589.008057,426.388184 
	C589.008057,444.745148 589.008057,462.365326 589.008057,480.875336 
	C534.714111,480.875336 480.607147,480.875336 426.000183,480.875336 
z"/>
<path fill="#FEFDFE" opacity="1.000000" stroke="none" 
	d="
M1090.695068,480.029602 
	C1089.057739,480.212280 1087.420898,480.550293 1085.783203,480.553741 
	C1067.639526,480.591858 1049.495117,480.494812 1031.352905,480.657135 
	C1028.177612,480.685577 1026.240479,479.615753 1024.212402,477.263641 
	C995.416077,443.866852 966.512085,410.562897 937.210632,376.781799 
	C935.549866,374.988525 934.312561,373.649963 932.287415,371.459106 
	C932.287415,374.154816 932.287292,375.745300 932.287354,377.335785 
	C932.288818,409.912201 932.303955,442.488678 932.257568,475.065002 
	C932.254822,477.004547 931.759460,478.943359 931.493286,480.882507 
	C911.514160,480.781494 891.534912,480.679749 871.555725,480.580627 
	C869.762024,480.571716 867.968140,480.579437 865.967957,480.579437 
	C865.967957,405.171661 865.967957,330.273987 865.967957,254.888031 
	C873.803406,254.888031 881.419067,254.888306 889.034790,254.887985 
	C901.030701,254.887466 913.030579,254.729218 925.019104,255.025650 
	C927.272461,255.081375 930.154358,256.372894 931.610657,258.069092 
	C960.905640,292.189728 990.031982,326.455078 1019.203308,360.681915 
	C1020.452820,362.147949 1021.807861,363.524048 1023.781250,365.666809 
	C1023.781250,328.289886 1023.781250,291.912415 1023.781250,255.809662 
	C1024.427612,255.342957 1024.684448,254.995056 1024.942017,254.994568 
	C1046.266602,254.953110 1067.591187,254.935745 1088.915771,254.941101 
	C1089.382812,254.941223 1089.849976,255.223267 1090.479248,256.143616 
	C1090.625366,286.695953 1090.588379,316.478424 1090.598389,346.260925 
	C1090.613281,390.850494 1090.661255,435.440033 1090.695068,480.029602 
z"/>
<path fill="#FA3538" opacity="1.000000" stroke="none" 
	d="
M710.017700,309.000000 
	C710.019287,292.669769 710.137695,276.838074 709.940002,261.010345 
	C709.890930,257.083099 711.050842,255.843842 715.008972,255.896347 
	C730.138550,256.097076 745.272400,255.977463 761.825745,255.977463 
	C744.806213,329.953125 727.964844,403.154327 711.123474,476.355560 
	C710.754761,476.337311 710.386047,476.319092 710.017334,476.300842 
	C710.017334,473.856354 710.017334,471.411865 710.017334,468.967377 
	C710.016907,446.471802 709.933838,423.975616 710.092285,401.481171 
	C710.120728,397.445557 709.064941,395.976776 704.794006,396.028503 
	C686.800171,396.246490 668.799561,396.289246 650.807373,396.012573 
	C645.981934,395.938416 645.004456,397.697479 645.034424,402.073456 
	C645.202271,426.567505 645.036804,451.063782 645.189819,475.558014 
	C645.214844,479.569061 644.226257,481.143860 639.925720,481.069641 
	C626.099182,480.830902 612.265137,480.892212 598.436035,481.035400 
	C594.673767,481.074341 593.144714,480.016266 593.150513,475.945892 
	C593.252380,404.293396 593.255554,332.640686 593.143677,260.988251 
	C593.137390,256.975037 594.413269,255.856674 598.279541,255.908829 
	C611.941040,256.093170 625.610168,256.153992 639.268555,255.875824 
	C643.807068,255.783401 645.251892,257.034058 645.213074,261.700195 
	C645.000916,287.193420 645.248596,312.690704 644.997437,338.183197 
	C644.948608,343.139557 646.509338,344.293182 651.210632,344.225403 
	C669.036804,343.968353 686.868896,344.120300 704.698730,344.119293 
	C706.179504,344.119232 707.660217,344.119293 710.017639,344.119293 
	C710.017639,332.336334 710.017639,320.918152 710.017700,309.000000 
z"/>
<path fill="#FA3538" opacity="1.000000" stroke="none" 
	d="
M763.593262,479.584900 
	C750.179016,477.642029 737.970398,473.454620 726.538757,467.083923 
	C725.225830,466.352264 723.493103,464.260162 723.726685,463.182953 
	C727.520447,445.686310 731.600525,428.251740 735.828491,409.879272 
	C737.974365,411.540436 739.528076,412.631531 740.957458,413.866455 
	C764.187378,433.935822 796.189575,434.422028 820.078430,414.814941 
	C823.362183,412.119812 825.335938,412.063324 828.288574,415.167419 
	C837.703857,425.065491 847.279419,434.819061 857.041016,444.375214 
	C860.039062,447.310211 860.099243,449.072083 856.933228,451.855255 
	C837.827698,468.650360 815.951843,478.950226 790.331665,480.159882 
	C781.587097,480.572815 772.790833,479.890991 763.593262,479.584900 
z"/>
<path fill="#FA3538" opacity="1.000000" stroke="none" 
	d="
M808.100281,313.819153 
	C792.159058,306.033051 776.056396,306.153351 758.648071,311.437653 
	C760.360779,303.686798 761.807983,296.967407 763.335205,290.266266 
	C765.547302,280.560181 767.952820,270.895691 769.993286,261.154297 
	C770.765137,257.469147 772.352295,256.031433 776.243164,255.876038 
	C808.210815,254.599167 835.617859,265.209747 858.821838,287.041748 
	C859.281128,287.473877 859.571350,288.085663 860.092102,288.830597 
	C859.235291,289.913269 858.520142,291.018890 857.612244,291.933105 
	C847.516357,302.100433 837.344482,312.192932 827.309204,322.419556 
	C825.135620,324.634460 823.712952,324.864471 821.135498,322.722565 
	C817.200195,319.452209 812.698730,316.863007 808.100281,313.819153 
z"/>
<path fill="#F9F7FB" opacity="1.000000" stroke="none" 
	d="
M983.007141,583.112671 
	C982.366455,579.663086 981.725708,576.213501 981.035095,571.937988 
	C980.341187,566.329712 979.697205,561.547302 979.053223,556.764893 
	C978.809631,556.800049 978.565979,556.835205 978.322388,556.870361 
	C977.321594,565.519043 976.320740,574.167786 975.275330,583.201965 
	C970.518616,583.201965 966.229126,583.201965 961.939575,583.201965 
	C961.151123,580.129089 960.041687,577.098633 959.628906,573.976074 
	C957.672485,559.179199 955.906372,544.357178 954.040222,529.283081 
	C957.994995,529.283081 961.576660,529.283081 965.410034,529.283081 
	C966.355957,536.514160 967.275208,543.541199 968.194397,550.568237 
	C968.621338,550.611267 969.048218,550.654297 969.475098,550.697388 
	C970.360718,543.615784 971.246277,536.534241 972.157288,529.249573 
	C975.843445,529.249573 979.469177,529.249573 983.585632,529.249573 
	C984.704529,537.297058 985.832703,545.411072 986.960876,553.525146 
	C987.204224,553.496338 987.447632,553.467468 987.691040,553.438660 
	C988.530273,545.545105 989.369507,537.651550 990.253845,529.334229 
	C994.325134,529.334229 998.409912,529.334229 1002.585571,530.055542 
	C1000.387207,548.145935 998.098022,565.514954 995.808899,582.883972 
	C995.808899,582.883972 995.896851,582.891724 995.436218,582.917542 
	C990.986084,582.999817 986.996643,583.056274 983.007141,583.112671 
z"/>
<path fill="#F8F6FB" opacity="1.000000" stroke="none" 
	d="
M239.728226,577.804749 
	C239.655243,579.740295 239.581879,581.197754 239.499634,582.831970 
	C235.256744,582.831970 231.305817,582.831970 226.914948,582.831970 
	C225.169601,574.381042 223.410660,565.864258 221.651733,557.347473 
	C221.390167,557.381470 221.128616,557.415527 220.867065,557.449585 
	C220.867065,565.711853 220.867065,573.974182 220.867065,582.633789 
	C216.528564,582.633789 212.503677,582.633789 208.212448,582.633789 
	C208.212448,561.626526 208.212448,540.578125 208.212448,519.282349 
	C212.589340,519.282349 216.824631,519.282349 221.313568,519.282349 
	C222.938431,527.476196 224.534805,535.526306 226.131180,543.576416 
	C226.388840,543.540222 226.646484,543.504089 226.904144,543.467896 
	C226.904144,535.575195 226.904144,527.682556 226.904144,519.413879 
	C231.186325,519.413879 235.213013,519.413879 239.727859,519.413879 
	C239.727859,538.786072 239.727859,558.056335 239.728226,577.804749 
z"/>
<path fill="#FCFBFD" opacity="1.000000" stroke="none" 
	d="
M890.724548,582.010193 
	C890.610779,582.172424 890.497009,582.334656 889.765320,582.754883 
	C885.426575,583.036255 881.705750,583.059570 877.984863,583.082886 
	C876.161682,574.880554 874.338501,566.678162 872.515259,558.475830 
	C872.229736,558.469788 871.944153,558.463745 871.658630,558.457703 
	C871.658630,566.514343 871.658630,574.571045 871.658630,582.814819 
	C867.035034,582.814819 863.114075,582.814819 858.959717,582.814819 
	C858.959717,561.577515 858.959717,540.532043 858.959717,519.266846 
	C863.299438,519.266846 867.412415,519.266846 871.999023,519.266846 
	C873.718933,527.866882 875.457336,536.559326 877.195740,545.251770 
	C877.442078,545.222168 877.688354,545.192566 877.934692,545.162964 
	C877.934692,536.620911 877.934692,528.078857 877.934692,519.382568 
	C882.184326,519.382568 886.113770,519.382568 890.239746,520.154297 
	C890.532288,541.287476 890.628418,561.648804 890.724548,582.010193 
z"/>
<path fill="#FAF8FD" opacity="1.000000" stroke="none" 
	d="
M517.968567,583.170898 
	C517.698303,582.785583 517.192383,582.400635 517.191650,582.014771 
	C517.153503,561.225769 517.157898,540.436646 517.157898,519.345215 
	C521.473755,519.345215 525.528931,519.345215 529.930420,519.345215 
	C529.930420,526.724365 529.930420,533.993042 529.930420,541.770630 
	C531.957703,541.882446 533.678772,541.977417 535.875305,542.098572 
	C535.875305,534.424561 535.875305,527.006592 535.875305,519.299805 
	C540.419250,519.299805 544.515625,519.299805 548.774414,520.123535 
	C548.900208,541.629028 548.863464,562.310669 548.826721,582.992371 
	C548.826721,582.992371 548.977295,582.970825 548.509338,582.973511 
	C544.356567,583.050720 540.671692,583.125244 536.986877,583.199829 
	C536.655823,581.184570 536.070129,579.173218 536.039124,577.153381 
	C535.924622,569.699036 535.993652,562.241943 535.993652,554.273682 
	C534.123718,554.182800 532.411316,554.099548 530.066345,553.985596 
	C530.066345,563.531311 530.066345,572.769592 529.566101,582.505859 
	C525.366760,583.059509 521.667664,583.115173 517.968567,583.170898 
z"/>
<path fill="#F9F7FB" opacity="1.000000" stroke="none" 
	d="
M668.998718,583.181213 
	C668.701721,582.635376 668.146240,582.090149 668.145020,581.543701 
	C668.100891,560.928772 668.107788,540.313782 668.107788,519.369507 
	C672.622986,519.369507 676.871826,519.369507 681.750183,519.369507 
	C681.750183,523.379089 681.750183,527.553345 681.750183,533.112732 
	C686.063965,527.756653 690.584473,527.473328 695.037903,529.652649 
	C699.522888,531.847351 700.923889,536.165771 700.923340,540.966248 
	C700.921814,554.762634 700.922791,568.559082 700.922791,582.693542 
	C696.678894,582.693542 692.612061,582.693542 687.671997,582.693542 
	C687.671997,569.112122 687.671997,555.383606 687.363281,540.923096 
	C683.535828,537.467163 681.926270,539.086670 681.911133,542.779541 
	C681.857544,555.854797 681.995911,568.930786 682.061462,582.006531 
	C682.061462,582.006531 681.888123,582.364319 681.456543,582.656006 
	C677.016235,583.025513 673.007507,583.103394 668.998718,583.181213 
z"/>
<path fill="#F9F7FB" opacity="1.000000" stroke="none" 
	d="
M344.478760,544.108948 
	C344.406891,556.754822 344.335052,569.400635 343.659546,582.479004 
	C339.341858,582.986084 335.627869,583.060608 331.913849,583.135132 
	C331.527008,582.163269 330.805542,581.192383 330.802734,580.219421 
	C330.745270,560.420959 330.767883,540.622314 330.791290,520.823669 
	C330.791870,520.341003 330.984100,519.858521 331.114044,519.248840 
	C335.393097,519.248840 339.651245,519.248840 344.394104,519.248840 
	C344.394104,523.366577 344.394104,527.277466 344.394104,531.415955 
	C354.240845,526.554321 358.949493,527.898804 362.915558,536.932373 
	C363.081482,537.722351 363.183197,537.887268 363.284943,538.052246 
	C363.341888,538.462463 363.398834,538.872681 363.444519,540.032349 
	C363.433228,554.691345 363.433228,568.600830 363.433228,583.062805 
	C358.876465,583.062805 354.917908,583.062805 350.959381,583.062805 
	C350.959381,583.062805 350.952515,582.996765 350.689026,582.611572 
	C350.392120,569.416199 350.375397,556.605957 350.309906,543.795959 
	C350.298126,541.491272 350.497833,538.420593 347.124695,538.982178 
	C345.989685,539.171143 345.346649,542.315430 344.478760,544.108948 
z"/>
<path fill="#FBF9FC" opacity="1.000000" stroke="none" 
	d="
M1097.629150,561.262207 
	C1100.113770,568.533813 1102.460938,575.436951 1105.042114,583.028381 
	C1100.738037,583.028381 1096.819946,583.257324 1092.960815,582.881653 
	C1091.875610,582.776001 1090.495972,581.060852 1090.050293,579.801147 
	C1087.815796,573.486206 1085.846680,567.077271 1082.972534,560.876770 
	C1082.972534,564.484009 1082.972412,568.091187 1082.972412,571.698364 
	C1082.972412,575.319824 1082.972534,578.941284 1082.972534,582.789124 
	C1078.620483,582.789124 1074.675415,582.789124 1070.346191,582.789124 
	C1070.346191,561.893555 1070.346191,540.850891 1070.346191,519.424805 
	C1074.135010,519.424805 1078.192627,519.424805 1082.762695,519.424805 
	C1082.762695,527.565369 1082.762695,535.923767 1082.762695,544.282227 
	C1083.106689,544.348267 1083.450806,544.414307 1083.794800,544.480347 
	C1085.577759,539.416321 1087.360718,534.352234 1089.177002,529.193115 
	C1093.591553,529.193115 1097.886353,529.193115 1102.736450,529.193115 
	C1100.866333,534.565430 1099.493896,539.868713 1097.200806,544.738525 
	C1094.554077,550.359253 1094.933105,555.553955 1097.629150,561.262207 
z"/>
<path fill="#F9F7FB" opacity="1.000000" stroke="none" 
	d="
M251.242355,531.105347 
	C266.400391,524.315186 277.326843,531.236023 277.410217,547.351685 
	C277.447205,554.503418 277.576111,561.671936 277.166626,568.804382 
	C276.597473,578.718262 270.916718,583.693909 260.886017,583.683228 
	C251.022293,583.672729 245.342331,578.875549 244.793549,569.196838 
	C244.314102,560.740662 244.465195,552.237671 244.621643,543.760620 
	C244.714645,538.721741 246.740723,534.399658 251.242355,531.105347 
M263.972198,562.418945 
	C263.960632,555.936890 264.110596,549.447266 263.810425,542.978638 
	C263.745087,541.570618 262.068451,540.237366 261.133942,538.869751 
	C260.087555,540.109009 258.170166,541.323547 258.134155,542.591492 
	C257.874847,551.724365 257.894592,560.870667 258.131653,570.004761 
	C258.160248,571.107117 260.018341,572.161926 261.028503,573.238770 
	C261.992676,572.116760 263.499512,571.121216 263.797211,569.843811 
	C264.275726,567.791016 263.955139,565.551819 263.972198,562.418945 
z"/>
<path fill="#F9F7FB" opacity="1.000000" stroke="none" 
	d="
M1019.736694,528.738403 
	C1032.425415,527.758423 1039.141479,533.651855 1039.362183,545.869568 
	C1039.503174,553.679688 1039.553589,561.514526 1039.098511,569.306396 
	C1038.544678,578.788940 1032.707153,583.702515 1022.870483,583.687744 
	C1013.200867,583.673218 1007.395874,578.960815 1006.829346,569.707825 
	C1006.302002,561.093750 1006.263672,552.414917 1006.630066,543.790894 
	C1006.992432,535.262634 1010.875244,531.133728 1019.736694,528.738403 
M1019.924072,543.905396 
	C1019.923462,552.223572 1019.779907,560.546387 1020.054443,568.855530 
	C1020.103638,570.346741 1021.878174,571.781006 1022.856140,573.241638 
	C1023.889648,571.838440 1025.769775,570.463318 1025.817261,569.027344 
	C1026.098511,560.552246 1026.092529,552.058716 1025.828735,543.582397 
	C1025.779175,541.986694 1024.129639,540.440674 1023.218384,538.871704 
	C1022.127869,540.245239 1021.037415,541.618835 1019.924072,543.905396 
z"/>
<path fill="#F6F4F9" opacity="1.000000" stroke="none" 
	d="
M913.431763,572.185303 
	C913.891418,568.965942 914.351013,565.746521 914.846436,562.275757 
	C918.896912,562.275757 922.988464,562.275757 927.067993,562.275757 
	C930.128113,577.535217 919.030151,587.547424 904.352783,582.780518 
	C899.393616,581.169922 896.438904,577.244263 896.137146,572.407288 
	C895.486206,561.971069 895.277344,551.476379 895.563538,541.024109 
	C895.736938,534.692505 899.872986,530.521851 906.004639,529.214844 
	C913.245056,527.671509 920.339661,527.775452 925.666382,535.090088 
	C926.162415,535.850769 926.389160,536.128845 926.615845,536.406921 
	C926.615845,536.406921 926.640381,536.271240 926.661865,536.700562 
	C927.081360,543.444824 927.479370,549.759766 927.877319,556.074768 
	C927.877380,556.074768 927.727905,556.279358 927.377991,556.552246 
	C920.959229,556.825134 914.890320,556.825134 908.991089,556.825134 
	C908.991089,562.700745 908.991089,567.781982 908.991089,573.555176 
	C910.842407,572.984070 912.137085,572.584656 913.431763,572.185303 
M914.396912,545.600586 
	C914.332703,544.437378 914.575500,543.136047 914.129272,542.144775 
	C913.523621,540.799377 912.390564,539.691345 911.483582,538.481506 
	C910.538757,539.673340 908.999939,540.763977 908.775757,542.078735 
	C908.342041,544.622070 908.649048,547.291748 908.649048,550.101074 
	C911.871155,550.557922 915.082458,551.543213 914.396912,545.600586 
z"/>
<path fill="#F9F7FB" opacity="1.000000" stroke="none" 
	d="
M805.240173,536.172058 
	C808.530457,531.262634 813.155396,528.879944 819.033264,528.472290 
	C829.805176,527.725098 835.810059,532.827393 836.304504,543.593018 
	C836.502197,547.897339 836.336975,552.218262 836.336975,557.010498 
	C829.859253,557.010498 823.789917,557.010498 817.350220,557.010498 
	C817.350220,561.425354 817.103638,565.395142 817.482605,569.304321 
	C817.617188,570.692444 819.273071,571.933105 820.234436,573.241089 
	C821.181885,571.771301 822.555908,570.410095 822.965210,568.803223 
	C823.442505,566.929382 823.076660,564.840759 823.076660,562.438782 
	C827.430115,562.438782 831.638367,562.438782 835.862793,562.438782 
	C838.241150,577.552002 829.737915,585.950867 814.953918,583.151306 
	C809.067932,582.036682 805.471558,578.264893 805.055908,572.764099 
	C804.256104,562.176697 804.383240,551.519226 804.284790,540.161255 
	C804.709106,538.345154 804.974670,537.258606 805.240173,536.172058 
M821.324951,550.403320 
	C823.592285,548.148621 823.903687,540.644226 821.705505,539.114624 
	C821.132629,538.716003 819.564697,538.631104 819.533936,538.731750 
	C818.627747,541.701477 817.598511,544.683167 817.249695,547.738464 
	C817.162659,548.500977 819.339417,549.521912 821.324951,550.403320 
z"/>
<path fill="#F9F7FB" opacity="1.000000" stroke="none" 
	d="
M400.077179,569.148193 
	C398.235840,581.720764 386.342346,587.703125 375.361603,581.970703 
	C369.915649,579.127686 368.462921,573.889343 368.210419,568.536926 
	C367.795197,559.735046 367.770630,550.885742 368.167755,542.082886 
	C368.559692,533.394287 375.004364,528.342163 384.614227,528.401917 
	C394.100647,528.460999 399.478210,532.883301 400.124786,541.666260 
	C400.488892,546.611877 400.190399,551.606323 400.190399,557.051819 
	C393.837402,557.051819 387.765930,557.051819 381.440704,557.051819 
	C381.440704,561.630737 381.230164,565.759338 381.570984,569.841919 
	C381.671204,571.042419 383.333588,572.112488 384.280029,573.242371 
	C385.204651,572.093201 386.681458,571.051941 386.931763,569.771057 
	C387.369598,567.530762 387.053864,565.143188 387.053864,562.424805 
	C391.450623,562.424805 395.659698,562.424805 400.126648,562.424805 
	C400.126648,564.510254 400.126648,566.623169 400.077179,569.148193 
M387.138885,543.797607 
	C386.116302,542.045349 385.093750,540.293091 384.071167,538.540833 
	C383.078430,540.396057 381.734863,542.155762 381.196533,544.134644 
	C380.707092,545.933838 381.092957,547.971252 381.092957,550.161377 
	C383.230621,550.161377 384.956146,550.161377 387.145020,550.161377 
	C387.145020,548.179443 387.145020,546.415283 387.138885,543.797607 
z"/>
<path fill="#FAF8FC" opacity="1.000000" stroke="none" 
	d="
M591.031372,558.316406 
	C593.858643,552.328613 599.419739,551.132019 604.571167,549.352783 
	C608.443115,548.015564 610.118042,543.526306 607.836121,540.080383 
	C607.429321,539.466064 606.509094,538.711548 605.943237,538.797241 
	C605.128235,538.920410 604.038940,539.599854 603.749573,540.317322 
	C603.206909,541.662537 603.153748,543.205261 602.881470,544.754333 
	C598.783081,544.754333 594.693237,544.754333 590.621155,544.754333 
	C590.084045,533.509399 594.626404,528.719666 605.821350,528.435059 
	C616.130615,528.172852 621.879150,533.578491 621.910034,543.675293 
	C621.949585,556.620972 621.919617,569.566833 621.919617,582.770203 
	C617.463867,582.770203 613.367737,582.770203 609.106445,582.770203 
	C608.969482,581.566162 608.826599,580.310364 608.652527,578.780273 
	C608.085632,579.240906 607.639587,579.459778 607.403870,579.817261 
	C605.209595,583.145264 602.159729,584.217712 598.328796,583.399292 
	C594.398071,582.559570 591.198914,580.410706 590.882507,576.365967 
	C590.424072,570.507324 590.854126,564.579102 591.031372,558.316406 
M602.919495,562.793274 
	C602.941650,565.114868 602.650513,567.500305 603.105103,569.733887 
	C603.372437,571.047852 604.824280,572.120728 605.743347,573.302063 
	C606.670349,572.159241 608.322449,571.061768 608.397278,569.865601 
	C608.702332,564.992676 608.524292,560.089478 608.524292,554.859558 
	C604.305054,555.896484 603.175720,558.565186 602.919495,562.793274 
z"/>
<path fill="#FAF8FC" opacity="1.000000" stroke="none" 
	d="
M586.212097,542.985291 
	C586.158386,546.356750 586.104675,549.728210 586.033569,553.877441 
	C586.057129,555.101196 586.098022,555.547119 586.138916,555.993042 
	C586.138916,555.993042 585.964905,556.395813 585.497925,556.693665 
	C579.028503,556.991516 573.026123,556.991516 567.033752,556.991516 
	C567.033752,561.688599 566.888489,565.637695 567.123840,569.563904 
	C567.192810,570.714539 568.343140,571.800232 568.997864,572.915710 
	C572.181946,573.860291 572.782898,571.768188 572.925659,569.416504 
	C573.064575,567.127869 572.955872,564.824280 572.955872,562.282959 
	C577.414307,562.282959 581.493774,562.282959 585.938354,562.282959 
	C585.938354,564.210999 586.020996,565.991028 585.925232,567.761353 
	C585.218750,580.817139 573.877502,587.666687 561.800415,582.321716 
	C556.385376,579.925049 554.368286,575.077454 554.144470,569.780273 
	C553.743896,560.300720 553.742004,550.784180 554.071899,541.300476 
	C554.311218,534.422302 558.930664,530.105774 566.216003,528.870300 
	C575.602417,527.278503 581.776001,530.105652 585.466248,538.246460 
	C585.860779,540.266663 586.036438,541.625977 586.212097,542.985291 
M572.979187,544.842041 
	C572.956238,544.020996 573.220947,543.026611 572.851929,542.414062 
	C572.022400,541.037170 570.878540,539.849731 569.862671,538.585144 
	C568.895569,539.931824 567.366028,541.172668 567.088013,542.649048 
	C566.624268,545.111816 566.961487,547.725342 566.961487,550.197510 
	C569.210327,550.197510 570.821899,550.197510 572.744995,550.197510 
	C572.828857,548.611938 572.904663,547.178467 572.979187,544.842041 
z"/>
<path fill="#FAF8FC" opacity="1.000000" stroke="none" 
	d="
M761.963562,583.225281 
	C761.444519,581.807678 760.925476,580.390076 760.279541,578.626038 
	C757.610291,583.396118 753.549622,584.771179 748.522766,582.888672 
	C743.355469,580.953491 742.249390,576.499695 741.884155,571.664246 
	C741.796814,570.506775 741.671204,569.349609 741.646118,568.190491 
	C741.402893,556.963501 744.027649,553.173401 755.624084,549.835571 
	C759.843811,548.620972 761.450867,546.722717 760.379822,541.900757 
	C759.251282,540.384094 758.264893,539.530884 757.278564,538.677612 
	C756.301208,540.600403 755.323792,542.523132 753.964233,545.197815 
	C751.174988,545.197815 747.552551,545.197815 743.930054,545.197815 
	C740.814575,541.516418 742.996033,533.825500 748.033691,530.730042 
	C755.598511,526.081726 767.102844,528.346313 772.720764,536.193359 
	C773.280640,539.278931 773.866211,541.712341 773.895203,544.152344 
	C774.045349,556.773743 774.053162,569.396851 774.110596,582.019348 
	C774.110657,582.019348 773.941589,582.398682 773.496094,582.694336 
	C769.354980,583.068420 765.659241,583.146851 761.963562,583.225281 
M760.221497,571.168762 
	C760.221497,565.809692 760.221497,560.450562 760.221497,554.935425 
	C755.434570,557.279114 752.655457,569.083008 756.030701,572.299500 
	C756.661682,572.900757 758.646240,572.081543 760.221497,571.168762 
z"/>
<path fill="#FAF8FC" opacity="1.000000" stroke="none" 
	d="
M421.330872,580.166931 
	C415.632629,585.725891 407.009430,584.124451 405.307495,576.942017 
	C404.077606,571.751709 404.268646,566.092163 404.638885,560.697693 
	C404.929749,556.459717 407.938751,553.518555 411.939148,551.936523 
	C415.478638,550.536804 419.076843,549.285706 423.996033,547.472534 
	C422.718658,544.468872 421.484070,541.565796 420.249451,538.662720 
	C419.019684,540.492554 417.789886,542.322388 416.132782,544.788086 
	C413.206604,544.788086 409.265167,544.788086 405.308960,544.788086 
	C403.640564,535.242920 407.587891,529.842957 417.103546,528.736694 
	C430.066986,527.229736 436.154968,532.642212 436.158844,545.727844 
	C436.162384,557.719482 436.127777,569.711121 436.091461,581.702698 
	C436.090576,581.991333 435.871307,582.279236 435.661041,582.795532 
	C431.798157,582.795532 427.848755,582.795532 423.537018,582.795532 
	C423.187469,581.793945 422.762085,580.575073 422.336700,579.356201 
	C422.198669,579.407715 422.043701,579.435181 421.927124,579.517212 
	C421.793671,579.611145 421.694305,579.753418 421.330872,580.166931 
M417.251892,561.999451 
	C417.310150,564.817444 417.115204,567.675720 417.554504,570.432983 
	C417.724091,571.497375 419.333344,572.332397 420.286713,573.271912 
	C421.103577,572.364136 422.584503,571.486206 422.626862,570.543579 
	C422.858704,565.386719 422.737305,560.214050 422.737305,555.046814 
	C422.176727,554.844543 421.616180,554.642334 421.055603,554.440063 
	C419.817169,556.677246 418.578705,558.914429 417.251892,561.999451 
z"/>
<path fill="#F8F6FB" opacity="1.000000" stroke="none" 
	d="
M723.584106,572.186707 
	C724.232056,568.353271 724.880005,564.519775 725.589478,560.322510 
	C729.321411,560.322510 733.563599,560.322510 738.219849,560.322510 
	C738.219849,562.345337 738.226807,564.318909 738.218689,566.292419 
	C738.158691,580.866089 725.976746,588.230652 712.840515,581.598816 
	C708.398315,579.356201 706.207764,575.286621 706.055908,570.674072 
	C705.733765,560.886841 705.499634,551.041260 706.214355,541.291748 
	C706.864563,532.421326 713.569885,527.891174 723.237671,528.470215 
	C732.939819,529.051331 737.887756,533.808655 738.193970,542.919739 
	C738.276611,545.377380 738.206543,547.840271 738.206543,550.522766 
	C733.637817,550.522766 729.551147,550.522766 724.768494,550.522766 
	C724.768494,547.795715 724.768494,545.196899 724.600220,541.811157 
	C723.324829,540.325928 722.217834,539.627625 721.110779,538.929321 
	C720.369202,540.240845 719.012939,541.539612 718.985474,542.865967 
	C718.800171,551.806030 718.854065,560.752502 718.964233,569.695190 
	C718.975891,570.641968 719.852966,571.578064 720.328613,572.519104 
	C720.328613,572.519104 720.446350,572.640991 720.828369,572.822632 
	C722.001648,572.731750 722.792847,572.459229 723.584106,572.186707 
z"/>
<path fill="#F9F7FB" opacity="1.000000" stroke="none" 
	d="
M461.612488,545.358765 
	C460.221527,544.185852 459.320496,542.957275 458.283417,541.857056 
	C457.303497,540.817505 456.180603,539.912781 455.120605,538.948730 
	C454.678802,540.471008 453.626617,542.148254 453.962799,543.473083 
	C454.315918,544.864441 455.871826,546.075928 457.126190,547.088379 
	C460.228912,549.592590 463.657959,551.719971 466.598480,554.392090 
	C473.162537,560.356812 474.558624,571.045166 469.889954,577.535034 
	C465.642334,583.439575 454.297791,585.730530 447.121887,581.821411 
	C439.754517,577.807922 439.481201,570.835266 440.077820,563.325195 
	C444.247711,563.325195 448.325043,563.325195 452.811523,563.325195 
	C452.939331,565.540894 452.725555,567.896118 453.332825,570.016113 
	C453.679382,571.226074 455.364319,572.052734 456.446655,573.051941 
	C457.231293,571.924377 458.863861,570.580200 458.641510,569.709900 
	C457.976349,567.106567 457.120056,564.187012 455.358917,562.309753 
	C452.313019,559.063049 448.489594,556.555603 445.065765,553.651367 
	C440.038483,549.387085 439.057343,543.861511 440.673981,537.808960 
	C442.277618,531.804993 447.162933,529.671997 452.638489,528.751160 
	C464.973907,526.676941 472.366882,532.920776 471.818054,545.359131 
	C468.587708,545.359131 465.315369,545.359131 461.612488,545.358765 
z"/>
<path fill="#F8F6FB" opacity="1.000000" stroke="none" 
	d="
M660.670898,545.197754 
	C660.671692,552.818726 660.530273,559.970825 660.748230,567.111877 
	C660.826172,569.665955 659.096680,572.960022 663.606812,574.474060 
	C664.645264,574.822754 664.202820,579.582581 664.468201,582.613342 
	C662.033264,583.043945 660.113647,583.556213 658.167114,583.696899 
	C650.632812,584.241516 647.975098,582.044983 647.838135,574.560486 
	C647.640625,563.761719 647.787720,552.956665 647.787720,541.822693 
	C641.005249,540.519958 645.017456,535.314392 643.919373,531.621216 
	C645.305664,531.201233 646.498718,530.839783 647.881714,530.420776 
	C647.881714,526.612732 647.881714,522.978149 647.881714,519.192017 
	C652.100037,519.192017 656.058777,519.192017 660.672180,519.192017 
	C660.672180,521.727173 660.581360,524.165344 660.701416,526.593018 
	C660.795044,528.487061 659.722717,530.753479 663.257935,531.352966 
	C665.287842,531.697083 664.457886,539.646667 662.637390,541.102539 
	C661.648560,541.893188 661.305054,543.490845 660.670898,545.197754 
z"/>
<path fill="#F8F6FB" opacity="1.000000" stroke="none" 
	d="
M495.229858,532.574951 
	C494.569305,536.050171 497.362305,540.380432 491.988312,541.781372 
	C491.654663,541.868347 491.668152,543.616821 491.665588,544.592712 
	C491.643738,552.905518 491.532745,561.221863 491.772980,569.527832 
	C491.815186,570.987000 493.718567,572.305664 494.152008,573.859436 
	C494.905731,576.561340 495.183655,579.395935 495.735535,582.608643 
	C492.908569,583.060974 490.830688,583.585022 488.731201,583.694763 
	C481.459595,584.074768 479.081635,581.943237 478.827423,574.615662 
	C478.637268,569.135620 478.759186,563.644592 478.752197,558.158447 
	C478.745209,552.676208 478.750671,547.193909 478.750671,541.570496 
	C477.555725,541.249695 476.485382,540.962341 475.217682,540.622070 
	C475.217682,537.657532 475.217682,534.714172 475.217682,531.538757 
	C476.281738,531.212830 477.480347,530.845642 478.876068,530.418152 
	C478.876068,526.651978 478.876068,523.014160 478.876068,519.210449 
	C483.085022,519.210449 487.040497,519.210449 490.959106,519.210449 
	C493.474579,523.214783 488.441132,529.601379 495.229858,532.574951 
z"/>
<path fill="#F7F5FA" opacity="1.000000" stroke="none" 
	d="
M930.647095,538.024536 
	C931.394348,535.263855 929.279175,531.347595 934.070618,530.076355 
	C934.577942,529.941772 934.276001,526.669189 934.306946,524.851624 
	C934.337341,523.066101 934.313538,521.279602 934.313538,519.266846 
	C938.754761,519.266846 942.688843,519.266846 947.007690,519.266846 
	C947.007690,522.822754 947.007690,526.402344 947.007690,529.795471 
	C951.946411,532.201477 952.490845,538.276672 948.478577,541.174194 
	C947.841919,541.633850 947.346497,542.740051 947.339844,543.551941 
	C947.265137,552.692566 947.289734,561.834167 947.323181,570.975342 
	C947.325500,571.607910 947.452515,572.684387 947.789307,572.804749 
	C953.049927,574.684021 950.421265,578.883789 950.953430,582.569092 
	C949.330383,582.931763 947.931702,583.332703 946.505005,583.548645 
	C938.009827,584.834290 934.616089,582.237061 934.389404,573.677795 
	C934.143127,564.376648 934.415100,555.062317 934.220093,545.758728 
	C934.193481,544.492004 932.770325,543.254456 931.474365,541.585205 
	C930.852356,540.119507 930.749756,539.072021 930.647095,538.024536 
z"/>
<path fill="#F8F6FB" opacity="1.000000" stroke="none" 
	d="
M309.924622,522.024658 
	C310.828156,521.029541 311.647644,519.289490 312.650696,519.176331 
	C315.902008,518.809448 319.220673,519.039246 322.830261,519.039246 
	C322.830261,523.020264 322.830261,526.622253 322.830261,530.557922 
	C328.410553,530.649109 326.958221,534.611572 326.734985,537.565552 
	C326.620605,539.079468 325.301147,540.502441 324.526337,541.966553 
	C324.023590,541.814636 323.520874,541.662720 323.018127,541.510803 
	C323.018127,551.302795 322.894684,561.098206 323.158661,570.883057 
	C323.195892,572.262573 325.124847,573.591125 326.739563,575.663879 
	C326.739563,577.061890 326.739563,579.538818 326.739563,582.281677 
	C322.074097,584.040100 317.502930,584.580566 312.476624,581.772095 
	C311.793213,581.054443 311.522614,580.779602 311.251984,580.504700 
	C311.251984,580.504700 311.213196,580.189209 311.088135,579.723450 
	C310.630554,577.848022 310.298035,576.438354 309.965454,575.028687 
	C310.001434,574.571411 310.037415,574.114075 310.112915,572.864380 
	C310.165192,562.821411 310.108124,553.569763 310.237122,544.320801 
	C310.271637,541.845886 309.734985,540.484680 306.983765,541.016113 
	C306.983765,541.016113 307.000000,541.000000 306.857300,540.570801 
	C306.808685,537.112244 306.902740,534.082947 306.996826,531.053650 
	C307.445312,531.043457 307.893829,531.033325 308.963074,530.990479 
	C309.700287,530.636841 309.816742,530.315857 309.933228,529.994873 
	C309.980255,529.239990 310.027252,528.485168 310.112396,526.954224 
	C310.075226,524.793640 309.999908,523.409180 309.924622,522.024658 
z"/>
<path fill="#F8F6FB" opacity="1.000000" stroke="none" 
	d="
M1057.514160,546.023193 
	C1057.498657,557.910400 1057.483154,569.797607 1057.035645,582.193848 
	C1053.049561,582.822876 1049.495361,582.942871 1045.941284,583.062866 
	C1045.320190,582.333496 1044.161377,581.607361 1044.156860,580.874329 
	C1044.054932,563.805420 1044.078003,546.735840 1044.078003,528.858154 
	C1048.980469,530.296265 1054.404175,526.400452 1058.277344,531.796936 
	C1060.596436,530.704529 1063.306396,529.428101 1066.255005,528.039185 
	C1067.504517,538.288513 1067.563721,540.610901 1060.167114,541.140381 
	C1056.343628,541.870361 1056.675903,543.845276 1057.514160,546.023193 
z"/>
<path fill="#FDFCFE" opacity="1.000000" stroke="none" 
	d="
M630.112549,519.049683 
	C633.564575,519.049377 636.533020,519.049377 639.808716,519.049377 
	C639.808716,540.392761 639.808716,561.419800 639.808716,582.735718 
	C635.593872,582.735718 631.375427,582.735718 626.758240,582.735718 
	C626.758240,567.965515 626.758179,553.365784 626.758240,538.766113 
	C626.758240,533.275208 626.821411,527.783142 626.727051,522.293884 
	C626.690369,520.158997 626.971375,518.625854 630.112549,519.049683 
z"/>
<path fill="#F8F6FB" opacity="1.000000" stroke="none" 
	d="
M282.956360,583.113220 
	C282.689209,582.730408 282.189240,582.348145 282.188385,581.964783 
	C282.149841,564.506714 282.154938,547.048645 282.154938,528.784851 
	C287.000092,530.424500 292.532410,526.277100 295.989960,531.381653 
	C298.802277,530.758301 301.819366,530.089539 304.839233,530.159302 
	C304.842010,533.525757 304.842010,536.153748 304.842010,538.621399 
	C295.335541,541.685730 295.338257,541.685730 295.341705,551.794312 
	C295.345215,562.044128 295.342529,572.294006 295.342529,583.113220 
	C290.865570,583.113220 286.910950,583.113220 282.956360,583.113220 
z"/>
<path fill="#FCFAFD" opacity="1.000000" stroke="none" 
	d="
M792.096252,582.019775 
	C792.096252,582.019775 791.931641,582.389160 791.487854,582.679871 
	C787.345642,583.050354 783.647156,583.130188 779.948730,583.210022 
	C779.554932,582.562622 778.819580,581.916504 778.817200,581.267700 
	C778.754517,564.051453 778.767395,546.834900 778.767395,529.332520 
	C783.105957,529.332520 787.186218,529.332520 791.631897,529.332520 
	C791.781433,530.407349 791.953369,531.643555 792.131348,532.922974 
	C793.923462,531.651428 795.699097,530.391602 798.002075,529.009277 
	C798.529419,528.886841 798.907532,528.653076 798.907532,528.653076 
	C799.678040,528.879517 800.448547,529.105896 801.313904,530.098022 
	C801.772034,535.839233 801.983826,540.562012 794.763367,540.576782 
	C793.811340,540.578796 792.056213,542.985779 792.040649,544.295105 
	C791.891357,556.868042 792.035828,569.444397 792.096252,582.019775 
z"/>
<path fill="#19053D" opacity="1.000000" stroke="none" 
	d="
M1091.104858,479.937958 
	C1090.661255,435.440033 1090.613281,390.850494 1090.598389,346.260925 
	C1090.588379,316.478424 1090.625366,286.695953 1090.759644,256.458435 
	C1091.582886,257.453735 1092.902588,258.903137 1092.904663,260.354401 
	C1093.005859,332.061188 1093.002930,403.768158 1092.933105,475.475037 
	C1092.931641,476.932587 1092.008057,478.389221 1091.104858,479.937958 
z"/>
<path fill="#19053D" opacity="1.000000" stroke="none" 
	d="
M931.916565,480.823730 
	C931.759460,478.943359 932.254822,477.004547 932.257568,475.065002 
	C932.303955,442.488678 932.288818,409.912201 932.287354,377.335785 
	C932.287292,375.745300 932.287415,374.154816 932.287415,371.459106 
	C934.312561,373.649963 935.549866,374.988525 936.898926,376.654419 
	C933.203247,376.948242 934.031433,379.796844 934.028259,381.960602 
	C933.993652,405.198761 934.007080,428.436981 934.007263,451.675201 
	C934.007385,459.808563 934.093750,467.943695 933.931274,476.073822 
	C933.899841,477.647491 932.895447,479.201721 931.916565,480.823730 
z"/>
<path fill="#3F2D5B" opacity="1.000000" stroke="none" 
	d="
M283.109528,583.469299 
	C286.910950,583.113220 290.865570,583.113220 295.342529,583.113220 
	C295.342529,572.294006 295.345215,562.044128 295.341705,551.794312 
	C295.338257,541.685730 295.335541,541.685730 304.842010,538.621399 
	C304.842010,536.153748 304.842010,533.525757 304.934570,530.458618 
	C305.558624,530.219727 306.090088,530.419861 306.809204,530.836792 
	C306.902740,534.082947 306.808685,537.112244 306.849731,540.579224 
	C305.658081,541.048035 304.322815,540.994629 303.005981,541.125916 
	C298.511383,541.574219 296.546631,543.605591 296.764648,548.595520 
	C297.207428,558.730164 296.688354,568.903931 296.989014,579.049011 
	C297.128815,583.766785 295.385773,585.510254 290.894562,584.894714 
	C288.349579,584.545898 285.806580,584.182312 283.109528,583.469299 
z"/>
<path fill="#1F0D3C" opacity="1.000000" stroke="none" 
	d="
M891.028931,581.804565 
	C890.628418,561.648804 890.532288,541.287476 890.575684,520.480652 
	C891.143799,521.026489 891.942627,522.016357 891.946228,523.009094 
	C892.014343,541.931152 891.994812,560.853455 891.955322,579.775696 
	C891.954102,580.383850 891.549805,580.991272 891.028931,581.804565 
z"/>
<path fill="#1F0D3C" opacity="1.000000" stroke="none" 
	d="
M792.470825,581.891235 
	C792.035828,569.444397 791.891357,556.868042 792.040649,544.295105 
	C792.056213,542.985779 793.811340,540.578796 794.763367,540.576782 
	C801.983826,540.562012 801.772034,535.839233 801.562561,530.435547 
	C802.655151,531.989868 803.593994,533.972412 804.886475,536.063477 
	C804.974670,537.258606 804.709106,538.345154 804.228882,539.692261 
	C793.981628,542.908264 793.982544,542.908264 793.985413,553.385498 
	C793.987549,561.160950 794.052734,568.937317 793.935547,576.710999 
	C793.910095,578.399963 793.226074,580.079041 792.470825,581.891235 
z"/>
<path fill="#4F3E6A" opacity="1.000000" stroke="none" 
	d="
M351.130920,583.401001 
	C354.917908,583.062805 358.876465,583.062805 363.433228,583.062805 
	C363.433228,568.600830 363.433228,554.691345 363.562927,540.320190 
	C364.049866,541.569519 364.699524,543.277588 364.716248,544.991943 
	C364.814728,555.094482 364.768982,565.198486 364.765717,575.302002 
	C364.762573,585.091309 361.085968,587.393188 351.130920,583.401001 
z"/>
<path fill="#281745" opacity="1.000000" stroke="none" 
	d="
M996.193298,582.826904 
	C998.098022,565.514954 1000.387207,548.145935 1002.821472,530.411011 
	C1002.977966,534.059692 1003.385193,538.119934 1002.928101,542.080444 
	C1001.432800,555.036926 999.639221,567.959229 997.887390,580.884827 
	C997.795898,581.559875 997.029785,582.143616 996.193298,582.826904 
z"/>
<path fill="#4F3E6A" opacity="1.000000" stroke="none" 
	d="
M344.770264,543.963867 
	C345.346649,542.315430 345.989685,539.171143 347.124695,538.982178 
	C350.497833,538.420593 350.298126,541.491272 350.309906,543.795959 
	C350.375397,556.605957 350.392120,569.416199 350.674438,582.641418 
	C350.329620,581.381165 349.247559,579.713257 349.221985,578.029236 
	C349.063599,567.598755 349.154114,557.164551 349.131653,546.731628 
	C349.127869,544.984375 348.975952,543.237427 348.892487,541.490295 
	C348.099823,540.884644 347.307129,540.278992 346.514465,539.673340 
	C346.030243,541.055176 345.545990,542.436951 344.770264,543.963867 
z"/>
<path fill="#281745" opacity="1.000000" stroke="none" 
	d="
M962.087646,583.564575 
	C966.229126,583.201965 970.518616,583.201965 975.275330,583.201965 
	C976.320740,574.167786 977.321594,565.519043 978.322388,556.870361 
	C978.565979,556.835205 978.809631,556.800049 979.053223,556.764893 
	C979.697205,561.547302 980.341187,566.329712 980.912231,571.534424 
	C979.893250,573.003967 978.252014,573.965149 978.110229,575.111877 
	C976.875366,585.099792 976.954407,585.152344 966.858337,584.947449 
	C965.311157,584.916077 963.776306,584.282349 962.087646,583.564575 
z"/>
<path fill="#19053D" opacity="1.000000" stroke="none" 
	d="
M774.484741,581.890259 
	C774.053162,569.396851 774.045349,556.773743 773.895203,544.152344 
	C773.866211,541.712341 773.280640,539.278931 772.969360,536.419678 
	C773.977112,538.424988 775.762939,540.833557 775.823120,543.284546 
	C776.120667,555.407959 775.980408,567.542725 775.917175,579.673035 
	C775.913513,580.370911 775.227417,581.065247 774.484741,581.890259 
z"/>
<path fill="#1F0D3C" opacity="1.000000" stroke="none" 
	d="
M720.502563,572.039551 
	C719.852966,571.578064 718.975891,570.641968 718.964233,569.695190 
	C718.854065,560.752502 718.800171,551.806030 718.985474,542.865967 
	C719.012939,541.539612 720.369202,540.240845 721.110779,538.929321 
	C722.217834,539.627625 723.324829,540.325928 724.439575,541.435547 
	C721.140442,541.769775 720.968628,543.920837 720.960815,546.459473 
	C720.935181,554.826477 720.781250,563.193237 720.502563,572.039551 
z"/>
<path fill="#1F0D3C" opacity="1.000000" stroke="none" 
	d="
M569.000305,572.455322 
	C568.343140,571.800232 567.192810,570.714539 567.123840,569.563904 
	C566.888489,565.637695 567.033752,561.688599 567.033752,556.991516 
	C573.026123,556.991516 579.028503,556.991516 585.490967,556.912964 
	C584.382568,557.557739 582.831360,558.864685 581.242920,558.911804 
	C568.979919,559.275208 568.977722,559.199585 569.001831,571.501831 
	C569.002136,571.666199 569.002380,571.830566 569.000305,572.455322 
z"/>
<path fill="#1F0D3C" opacity="1.000000" stroke="none" 
	d="
M549.143738,582.710449 
	C548.863464,562.310669 548.900208,541.629028 549.015137,520.486816 
	C549.403442,521.105957 549.980957,522.184753 549.983948,523.265198 
	C550.036804,542.191833 550.026062,561.118652 549.993652,580.045410 
	C549.992310,580.840149 549.646240,581.634155 549.143738,582.710449 
z"/>
<path fill="#1F0D3C" opacity="1.000000" stroke="none" 
	d="
M913.037109,572.085510 
	C912.137085,572.584656 910.842407,572.984070 908.991089,573.555176 
	C908.991089,567.781982 908.991089,562.700745 908.991089,556.825134 
	C914.890320,556.825134 920.959229,556.825134 927.465637,556.643677 
	C926.763550,557.306824 925.709106,558.683594 924.466003,558.882812 
	C922.039856,559.271606 919.503723,558.909363 917.021545,559.030945 
	C914.534912,559.152771 911.059082,557.944641 910.453552,561.660645 
	C909.878174,565.192261 908.416138,569.309265 913.037109,572.085510 
z"/>
<path fill="#1F0D3C" opacity="1.000000" stroke="none" 
	d="
M682.323547,581.683777 
	C681.995911,568.930786 681.857544,555.854797 681.911133,542.779541 
	C681.926270,539.086670 683.535828,537.467163 687.105591,540.590637 
	C683.347717,540.767090 682.962463,543.178589 682.982544,546.160828 
	C683.049438,556.093689 683.028198,566.027344 682.988281,575.960571 
	C682.981018,577.761230 682.726196,579.560913 682.323547,581.683777 
z"/>
<path fill="#281745" opacity="1.000000" stroke="none" 
	d="
M744.078247,545.559143 
	C747.552551,545.197815 751.174988,545.197815 753.964233,545.197815 
	C755.323792,542.523132 756.301208,540.600403 757.278564,538.677612 
	C758.264893,539.530884 759.251282,540.384094 760.183228,541.582031 
	C759.223755,542.244019 757.959778,542.286133 757.471497,542.922913 
	C754.064331,547.366455 750.282532,548.290161 744.078247,545.559143 
z"/>
<path fill="#1F0D3C" opacity="1.000000" stroke="none" 
	d="
M930.314941,538.005127 
	C930.749756,539.072021 930.852356,540.119507 931.026733,541.556641 
	C930.728149,544.501465 930.425354,547.068848 929.966187,549.607971 
	C929.598389,551.642273 929.040649,553.642151 928.222290,555.866089 
	C927.479370,549.759766 927.081360,543.444824 926.597900,536.726135 
	C927.669128,536.876892 928.825928,537.431274 930.314941,538.005127 
z"/>
<path fill="#3F2D5B" opacity="1.000000" stroke="none" 
	d="
M307.097839,541.381531 
	C309.734985,540.484680 310.271637,541.845886 310.237122,544.320801 
	C310.108124,553.569763 310.165192,562.821411 310.040985,572.526733 
	C309.635529,564.892700 309.457703,556.797058 308.975159,548.719666 
	C308.834686,546.368652 307.823822,544.069763 307.097839,541.381531 
z"/>
<path fill="#281745" opacity="1.000000" stroke="none" 
	d="
M983.128540,583.484741 
	C986.996643,583.056274 990.986084,582.999817 995.427246,582.874329 
	C991.992432,587.037537 987.589111,585.061768 983.128540,583.484741 
z"/>
<path fill="#1F0D3C" opacity="1.000000" stroke="none" 
	d="
M878.107910,583.458130 
	C881.705750,583.059570 885.426575,583.036255 889.614624,583.010986 
	C890.066345,583.568359 890.050903,584.127502 890.035461,584.686707 
	C886.100647,584.402283 882.165771,584.117859 878.107910,583.458130 
z"/>
<path fill="#1F0D3C" opacity="1.000000" stroke="none" 
	d="
M669.130249,583.547852 
	C673.007507,583.103394 677.016235,583.025513 681.476013,582.853760 
	C678.067566,587.119141 673.618042,585.005188 669.130249,583.547852 
z"/>
<path fill="#1F0D3C" opacity="1.000000" stroke="none" 
	d="
M780.093872,583.571411 
	C783.647156,583.130188 787.345642,583.050354 791.495239,582.881958 
	C788.395630,586.786743 784.299805,585.180176 780.093872,583.571411 
z"/>
<path fill="#19053D" opacity="1.000000" stroke="none" 
	d="
M762.108032,583.585327 
	C765.659241,583.146851 769.354980,583.068420 773.502197,582.901855 
	C770.399963,586.776184 766.309387,585.186951 762.108032,583.585327 
z"/>
<path fill="#1F0D3C" opacity="1.000000" stroke="none" 
	d="
M518.103455,583.536804 
	C521.667664,583.115173 525.366760,583.059509 529.524902,582.968750 
	C526.350159,586.668518 522.292480,585.264282 518.103455,583.536804 
z"/>
<path fill="#4F3E6A" opacity="1.000000" stroke="none" 
	d="
M332.107910,583.459412 
	C335.627869,583.060608 339.341858,582.986084 343.516327,582.924438 
	C340.311798,586.345520 336.296875,584.926880 332.107910,583.459412 
z"/>
<path fill="#1F0D3C" opacity="1.000000" stroke="none" 
	d="
M537.218506,583.503296 
	C540.671692,583.125244 544.356567,583.050720 548.495361,582.898682 
	C545.417236,586.661011 541.442505,585.336182 537.218506,583.503296 
z"/>
<path fill="#7E7295" opacity="1.000000" stroke="none" 
	d="
M1057.739624,545.759155 
	C1056.675903,543.845276 1056.343628,541.870361 1059.775146,541.211548 
	C1059.406372,542.604126 1058.685791,544.049683 1057.739624,545.759155 
z"/>
<path fill="#7E7295" opacity="1.000000" stroke="none" 
	d="
M1046.322510,583.182007 
	C1049.495361,582.942871 1053.049561,582.822876 1057.025391,582.633179 
	C1053.866089,582.809387 1050.284912,583.055298 1046.322510,583.182007 
z"/>
<path fill="#3F2D5B" opacity="1.000000" stroke="none" 
	d="
M309.742798,575.251709 
	C310.298035,576.438354 310.630554,577.848022 310.963013,579.625366 
	C310.481995,578.486938 310.001068,576.980774 309.742798,575.251709 
z"/>
<path fill="#1F0D3C" opacity="1.000000" stroke="none" 
	d="
M586.421265,542.702271 
	C586.036438,541.625977 585.860779,540.266663 585.694641,538.494995 
	C586.013000,539.528198 586.321716,540.973694 586.421265,542.702271 
z"/>
<path fill="#3F2D5B" opacity="1.000000" stroke="none" 
	d="
M309.697815,522.277222 
	C309.999908,523.409180 310.075226,524.793640 310.039429,526.581543 
	C309.775909,525.499817 309.623474,524.014771 309.697815,522.277222 
z"/>
<path fill="#1F0D3C" opacity="1.000000" stroke="none" 
	d="
M586.323242,555.835754 
	C586.098022,555.547119 586.057129,555.101196 586.111938,554.330566 
	C586.307678,554.563354 586.407654,555.120911 586.323242,555.835754 
z"/>
<path fill="#1F0D3C" opacity="1.000000" stroke="none" 
	d="
M723.078857,572.182678 
	C722.792847,572.459229 722.001648,572.731750 720.912659,572.831055 
	C721.267822,572.498108 721.920654,572.338379 723.078857,572.182678 
z"/>
<path fill="#3F2D5B" opacity="1.000000" stroke="none" 
	d="
M311.282715,580.810913 
	C311.522614,580.779602 311.793213,581.054443 312.136902,581.619263 
	C311.911133,581.645142 311.612305,581.381104 311.282715,580.810913 
z"/>
<path fill="#1F0D3C" opacity="1.000000" stroke="none" 
	d="
M926.610657,536.130737 
	C926.389160,536.128845 926.162415,535.850769 925.933411,535.294250 
	C926.155884,535.295349 926.380676,535.574890 926.610657,536.130737 
z"/>
<path fill="#1F0D3C" opacity="1.000000" stroke="none" 
	d="
M798.805298,528.566650 
	C798.907532,528.653076 798.529419,528.886841 798.311523,528.847656 
	C798.209290,528.508423 798.412415,528.398926 798.805298,528.566650 
z"/>
<path fill="#4F3E6A" opacity="1.000000" stroke="none" 
	d="
M363.408875,537.929993 
	C363.183197,537.887268 363.081482,537.722351 363.023438,537.269897 
	C363.222351,537.257568 363.377563,537.532654 363.408875,537.929993 
z"/>
<path fill="#3F2D5B" opacity="1.000000" stroke="none" 
	d="
M309.741760,530.101746 
	C309.816742,530.315857 309.700287,530.636841 309.292603,530.922485 
	C309.140594,530.625610 309.323547,530.399414 309.741760,530.101746 
z"/>
<path fill="#220A4F" opacity="1.000000" stroke="none" 
	d="
M263.972198,562.905151 
	C263.955139,565.551819 264.275726,567.791016 263.797211,569.843811 
	C263.499512,571.121216 261.992676,572.116760 261.028503,573.238770 
	C260.018341,572.161926 258.160248,571.107117 258.131653,570.004761 
	C257.894592,560.870667 257.874847,551.724365 258.134155,542.591492 
	C258.170166,541.323547 260.087555,540.109009 261.133942,538.869751 
	C262.068451,540.237366 263.745087,541.570618 263.810425,542.978638 
	C264.110596,549.447266 263.960632,555.936890 263.972198,562.905151 
z"/>
<path fill="#220A4F" opacity="1.000000" stroke="none" 
	d="
M1019.935547,543.448914 
	C1021.037415,541.618835 1022.127869,540.245239 1023.218384,538.871704 
	C1024.129639,540.440674 1025.779175,541.986694 1025.828735,543.582397 
	C1026.092529,552.058716 1026.098511,560.552246 1025.817261,569.027344 
	C1025.769775,570.463318 1023.889648,571.838440 1022.856079,573.241577 
	C1021.878174,571.781006 1020.103638,570.346741 1020.054443,568.855530 
	C1019.779907,560.546387 1019.923462,552.223572 1019.935547,543.448914 
z"/>
<path fill="#2D1754" opacity="1.000000" stroke="none" 
	d="
M914.397949,545.997803 
	C915.082458,551.543213 911.871155,550.557922 908.649048,550.101074 
	C908.649048,547.291748 908.342041,544.622070 908.775757,542.078735 
	C908.999939,540.763977 910.538757,539.673340 911.483643,538.481506 
	C912.390564,539.691345 913.523621,540.799377 914.129272,542.144775 
	C914.575500,543.136047 914.332703,544.437378 914.397949,545.997803 
z"/>
<path fill="#2D1754" opacity="1.000000" stroke="none" 
	d="
M820.900330,550.413696 
	C819.339417,549.521912 817.162659,548.500977 817.249695,547.738464 
	C817.598511,544.683167 818.627747,541.701477 819.533936,538.731750 
	C819.564697,538.631104 821.132629,538.716003 821.705505,539.114624 
	C823.903687,540.644226 823.592285,548.148621 820.900330,550.413696 
z"/>
<path fill="#2D1754" opacity="1.000000" stroke="none" 
	d="
M387.141968,544.224365 
	C387.145020,546.415283 387.145020,548.179443 387.145020,550.161377 
	C384.956146,550.161377 383.230621,550.161377 381.092957,550.161377 
	C381.092957,547.971252 380.707092,545.933838 381.196533,544.134644 
	C381.734863,542.155762 383.078430,540.396057 384.071167,538.540833 
	C385.093750,540.293091 386.116302,542.045349 387.141968,544.224365 
z"/>
<path fill="#37235C" opacity="1.000000" stroke="none" 
	d="
M602.932617,562.355713 
	C603.175720,558.565186 604.305054,555.896484 608.524292,554.859558 
	C608.524292,560.089478 608.702332,564.992676 608.397278,569.865601 
	C608.322449,571.061768 606.670349,572.159241 605.743347,573.302063 
	C604.824280,572.120728 603.372437,571.047852 603.105103,569.733887 
	C602.650513,567.500305 602.941650,565.114868 602.932617,562.355713 
z"/>
<path fill="#220A4F" opacity="1.000000" stroke="none" 
	d="
M572.979858,545.293518 
	C572.904663,547.178467 572.828857,548.611938 572.744995,550.197510 
	C570.821899,550.197510 569.210327,550.197510 566.961487,550.197510 
	C566.961487,547.725342 566.624268,545.111816 567.088013,542.649048 
	C567.366028,541.172668 568.895569,539.931824 569.862671,538.585144 
	C570.878540,539.849731 572.022400,541.037170 572.851929,542.414062 
	C573.220947,543.026611 572.956238,544.020996 572.979858,545.293518 
z"/>
<path fill="#37235C" opacity="1.000000" stroke="none" 
	d="
M760.113831,571.543335 
	C758.646240,572.081543 756.661682,572.900757 756.030701,572.299500 
	C752.655457,569.083008 755.434570,557.279114 760.221497,554.935425 
	C760.221497,560.450562 760.221497,565.809692 760.113831,571.543335 
z"/>
<path fill="#2D1754" opacity="1.000000" stroke="none" 
	d="
M417.296082,561.575562 
	C418.578705,558.914429 419.817169,556.677246 421.055603,554.440063 
	C421.616180,554.642334 422.176727,554.844543 422.737305,555.046814 
	C422.737305,560.214050 422.858704,565.386719 422.626862,570.543579 
	C422.584503,571.486206 421.103577,572.364136 420.286682,573.271912 
	C419.333344,572.332397 417.724091,571.497375 417.554504,570.432983 
	C417.115204,567.675720 417.310150,564.817444 417.296082,561.575562 
z"/>
</svg>